<?xml version="1.0" encoding="utf-8"?>
<svg version="1.1" xmlns:xlink="http://www.w3.org/1999/xlink" width="56px" height="65px" xmlns="http://www.w3.org/2000/svg">
  <g transform="matrix(1 0 0 1 -1195 -81 )">
    <path d="M 42.14583333333333 2.4665178571428594  L 53.52083333333333 13.78348214285714  C 54.20138888888889 14.460565476190471  54.78472222222223 15.379464285714288  55.27083333333333 16.54017857142857  C 55.75694444444444 17.700892857142858  56 18.76488095238095  56 19.732142857142858  L 56 61.51785714285714  C 56 62.48511904761905  55.65972222222222 63.307291666666664  54.97916666666667 63.984375  C 54.29861111111112 64.66145833333334  53.47222222222223 65  52.5 65  L 3.5 65  C 2.527777777777778 65  1.701388888888889 64.66145833333334  1.0208333333333335 63.984375  C 0.34027777777777773 63.307291666666664  0 62.48511904761905  0 61.51785714285714  L 0 3.4821428571428594  C 0 2.5148809523809508  0.34027777777777773 1.6927083333333308  1.0208333333333335 1.015625  C 1.701388888888889 0.33854166666666907  2.527777777777778 0  3.5 0  L 36.16666666666667 0  C 37.13888888888889 0  38.20833333333333 0.24181547619047894  39.375 0.7254464285714296  C 40.54166666666667 1.2090773809523803  41.46527777777778 1.789434523809521  42.14583333333333 2.4665178571428594  Z M 38.828125 5.731026785714289  C 38.53645833333333 5.440848214285711  38.03819444444445 5.174851190476183  37 4.933035714285711  L 37 19  L 51.04166666666667 19  C 50.79861111111112 17.870163690476183  50.53125 17.37444196428571  50.23958333333333 17.084263392857142  L 38.828125 5.731026785714289  Z M 5 60  L 51 60  L 51 24  L 36.16666666666667 24  C 35.19444444444444 23.21428571428571  34.36805555555556 22.875744047619044  33.6875 22.19866071428571  C 33.00694444444444 21.52157738095238  32.66666666666667 20.699404761904752  32 19.732142857142858  L 32 5  L 5 5  L 5 60  Z M 35 32.5  L 46 44.10714285714286  L 46 55  L 9.333333333333332 55  L 9.333333333333332 48.75  L 16.333333333333336 41.785714285714285  L 21 46.42857142857143  L 35 32.5  Z M 21.291666666666664 35.11160714285714  C 19.93055555555556 36.4657738095238  18.27777777777778 37.14285714285714  16.333333333333336 37.14285714285714  C 14.388888888888891 37.14285714285714  12.736111111111112 36.4657738095238  11.375 35.11160714285714  C 10.01388888888889 33.75744047619048  9.333333333333332 32.113095238095234  9.333333333333332 30.17857142857143  C 9.333333333333332 28.24404761904762  10.01388888888889 26.59970238095238  11.375 25.24553571428571  C 12.736111111111112 23.891369047619044  14.388888888888891 23.21428571428571  16.333333333333336 23.21428571428571  C 18.27777777777778 23.21428571428571  19.93055555555556 23.891369047619044  21.291666666666664 25.24553571428571  C 22.65277777777778 26.59970238095238  23.333333333333336 28.24404761904762  23.333333333333336 30.17857142857143  C 23.333333333333336 32.113095238095234  22.65277777777778 33.75744047619048  21.291666666666664 35.11160714285714  Z " fill-rule="nonzero" fill="#000000" stroke="none" transform="matrix(1 0 0 1 1195 81 )" />
  </g>
</svg>