<?xml version="1.0" encoding="utf-8"?>
<svg version="1.1" xmlns:xlink="http://www.w3.org/1999/xlink" width="60px" height="60px" xmlns="http://www.w3.org/2000/svg">
  <g transform="matrix(1 0 0 1 -1195 -555 )">
    <path d="M 37.0703125 37.07031250000001  C 39.0234375 35.11718749999999  40 32.760416666666664  40 30  C 40 27.23958333333333  39.0234375 24.882812499999996  37.0703125 22.929687500000004  C 35.1171875 20.9765625  32.76041666666667 20.000000000000004  30 20.000000000000004  C 27.239583333333336 20.000000000000004  24.8828125 20.9765625  22.9296875 22.929687500000004  C 20.9765625 24.882812499999996  20 27.23958333333333  20 30  C 20 32.760416666666664  20.9765625 35.11718749999999  22.9296875 37.07031250000001  C 24.8828125 39.0234375  27.239583333333336 40.00000000000001  30 40.00000000000001  C 32.76041666666667 40.00000000000001  35.1171875 39.0234375  37.0703125 37.07031250000001  Z M 59.6875 24.824218749999996  C 59.89583333333333 25.097656250000004  60 25.403645833333332  60 25.742187500000004  L 60 34.41406249999999  C 60 34.72656250000001  59.89583333333333 35.02604166666667  59.6875 35.31250000000001  C 59.47916666666667 35.59895833333333  59.21875 35.76822916666666  58.90625 35.82031249999999  L 51.6796875 36.9140625  C 51.18489583333334 38.3203125  50.67708333333334 39.50520833333333  50.15625 40.46875000000001  C 51.06770833333334 41.770833333333336  52.4609375 43.56770833333333  54.3359375 45.859375  C 54.59635416666667 46.171875  54.7265625 46.497395833333336  54.7265625 46.8359375  C 54.7265625 47.17447916666667  54.609375 47.47395833333333  54.375 47.734375  C 53.671875 48.69791666666667  52.3828125 50.10416666666667  50.5078125 51.953125  C 48.6328125 53.80208333333333  47.40885416666667 54.7265625  46.8359375 54.7265625  C 46.5234375 54.7265625  46.184895833333336 54.609375  45.8203125 54.375  L 40.4296875 50.15625  C 39.283854166666664 50.75520833333333  38.098958333333336 51.25  36.875 51.640625  C 36.458333333333336 55.18229166666667  36.08072916666667 57.60416666666667  35.7421875 58.90625  C 35.559895833333336 59.63541666666667  35.091145833333336 60  34.3359375 60  L 25.6640625 60  C 25.29947916666667 60  24.98046875 59.88932291666667  24.70703125 59.66796875  C 24.43359375 59.446614583333336  24.28385416666667 59.16666666666667  24.2578125 58.828125  L 23.1640625 51.640625  C 21.888020833333336 51.22395833333333  20.716145833333336 50.7421875  19.6484375 50.1953125  L 14.140625 54.375  C 13.880208333333336 54.609375  13.5546875 54.7265625  13.1640625 54.7265625  C 12.799479166666668 54.7265625  12.473958333333336 54.583333333333336  12.1875 54.296875  C 8.90625 51.328125  6.7578125 49.140625  5.7421875 47.734375  C 5.559895833333334 47.47395833333333  5.46875 47.17447916666667  5.46875 46.8359375  C 5.46875 46.5234375  5.572916666666668 46.22395833333333  5.78125 45.9375  C 6.171875 45.390625  6.8359375 44.524739583333336  7.773437499999999 43.33984375000001  C 8.7109375 42.15494791666666  9.4140625 41.23697916666666  9.8828125 40.58593750000001  C 9.1796875 39.28385416666666  8.645833333333334 37.99479166666666  8.28125 36.71875000000001  L 1.1328125 35.66406250000001  C 0.7942708333333335 35.61197916666667  0.5208333333333334 35.44921875  0.3125 35.17578124999999  C 0.10416666666666666 34.90234375000001  0 34.59635416666666  0 34.25781250000001  L 0 25.585937499999996  C 0 25.273437500000004  0.10416666666666666 24.97395833333333  0.3125 24.687500000000004  C 0.5208333333333334 24.401041666666668  0.7682291666666667 24.231770833333332  1.0546875 24.179687499999996  L 8.3203125 23.0859375  C 8.684895833333334 21.888020833333332  9.192708333333334 20.690104166666664  9.84375 19.492187499999996  C 8.802083333333334 18.007812500000004  7.408854166666668 16.210937499999996  5.6640625 14.101562499999998  C 5.403645833333334 13.789062500000002  5.2734375 13.4765625  5.2734375 13.164062499999998  C 5.2734375 12.90364583333333  5.390625 12.604166666666659  5.625 12.265625000000002  C 6.302083333333333 11.328125000000002  7.584635416666668 9.92838541666666  9.47265625 8.066406249999998  C 11.360677083333336 6.204427083333329  12.591145833333336 5.2734375  13.1640625 5.2734375  C 13.502604166666668 5.2734375  13.841145833333336 5.40364583333333  14.1796875 5.664062499999998  L 19.5703125 9.84375  C 20.716145833333336 9.244791666666663  21.90104166666667 8.750000000000002  23.125 8.359374999999998  C 23.54166666666667 4.81770833333333  23.919270833333332 2.395833333333328  24.2578125 1.0937499999999978  C 24.440104166666668 0.3645833333333304  24.908854166666668 0  25.6640625 0  L 34.3359375 0  C 34.700520833333336 0  35.01953125 0.11067708333332815  35.29296875 0.3320312499999978  C 35.56640625 0.5533854166666607  35.716145833333336 0.8333333333333304  35.7421875 1.171875  L 36.8359375 8.359374999999998  C 38.111979166666664 8.776041666666663  39.283854166666664 9.2578125  40.3515625 9.804687500000002  L 45.8984375 5.625  C 46.1328125 5.390625  46.4453125 5.2734375  46.8359375 5.2734375  C 47.17447916666667 5.2734375  47.5 5.40364583333333  47.8125 5.664062499999998  C 51.171875 8.763020833333332  53.3203125 10.976562500000002  54.2578125 12.3046875  C 54.44010416666667 12.513020833333332  54.53125 12.79947916666666  54.53125 13.164062499999998  C 54.53125 13.4765625  54.42708333333334 13.776041666666659  54.21875 14.0625  C 53.828125 14.609375000000002  53.1640625 15.475260416666659  52.2265625 16.660156250000004  C 51.2890625 17.845052083333332  50.5859375 18.76302083333333  50.1171875 19.414062500000004  C 50.79427083333334 20.716145833333332  51.328125 21.992187499999996  51.71875 23.242187499999996  L 58.8671875 24.335937500000004  C 59.205729166666664 24.38802083333333  59.47916666666667 24.550781249999993  59.6875 24.824218749999996  Z " fill-rule="nonzero" fill="#000000" stroke="none" transform="matrix(1 0 0 1 1195 555 )" />
  </g>
</svg>