<?xml version="1.0" encoding="utf-8"?>
<svg version="1.1" xmlns:xlink="http://www.w3.org/1999/xlink" width="47px" height="47px" xmlns="http://www.w3.org/2000/svg">
  <g transform="matrix(1 0 0 1 -100 -167 )">
    <path d="M 29.038411458333332 29.038411458333336  C 30.568359375 27.508463541666664  31.333333333333332 25.66232638888889  31.333333333333332 23.5  C 31.333333333333332 21.337673611111107  30.568359375 19.491536458333332  29.038411458333332 17.961588541666668  C 27.508463541666668 16.431640625  25.662326388888893 15.666666666666668  23.5 15.666666666666668  C 21.33767361111111 15.666666666666668  19.491536458333336 16.431640625  17.961588541666664 17.961588541666668  C 16.431640625 19.491536458333332  15.666666666666666 21.337673611111107  15.666666666666666 23.5  C 15.666666666666666 25.66232638888889  16.431640625 27.508463541666664  17.961588541666664 29.038411458333336  C 19.491536458333336 30.568359375  21.33767361111111 31.333333333333336  23.5 31.333333333333336  C 25.662326388888893 31.333333333333336  27.508463541666668 30.568359375  29.038411458333332 29.038411458333336  Z M 46.75520833333333 19.445638020833332  C 46.91840277777778 19.659830729166668  47 19.899522569444443  47 20.164713541666668  L 47 26.957682291666664  C 47 27.202473958333336  46.91840277777778 27.437065972222225  46.75520833333333 27.661458333333336  C 46.59201388888889 27.88585069444444  46.38802083333333 28.01844618055555  46.14322916666667 28.059244791666664  L 40.482421875 28.916015625  C 40.09483506944445 30.017578125  39.697048611111114 30.945746527777775  39.2890625 31.700520833333336  C 40.00303819444445 32.720486111111114  41.09440104166667 34.128038194444436  42.56315104166667 35.92317708333333  C 42.76714409722222 36.16796875  42.869140625 36.42296006944444  42.869140625 36.68815104166667  C 42.869140625 36.95334201388889  42.77734375 37.18793402777778  42.59375 37.39192708333333  C 42.04296875 38.14670138888889  41.033203125 39.24826388888889  39.564453125 40.69661458333333  C 38.095703125 42.14496527777778  37.13693576388889 42.869140625  36.68815104166667 42.869140625  C 36.443359375 42.869140625  36.17816840277778 42.77734375  35.892578125 42.59375  L 31.669921875 39.2890625  C 30.772352430555557 39.75824652777778  29.844184027777782 40.14583333333333  28.885416666666668 40.45182291666667  C 28.559027777777782 43.22612847222222  28.263237847222225 45.12326388888889  27.998046875 46.14322916666667  C 27.85525173611111 46.71440972222222  27.48806423611111 47  26.896484375 47  L 20.103515625 47  C 19.817925347222225 47  19.568033854166664 46.91330295138889  19.353841145833336 46.73990885416667  C 19.1396484375 46.56651475694444  19.022352430555557 46.34722222222222  19.001953125 46.08203125  L 18.145182291666664 40.45182291666667  C 17.145616319444446 40.12543402777778  16.227647569444446 39.748046875  15.391276041666666 39.31966145833333  L 11.076822916666668 42.59375  C 10.872829861111112 42.77734375  10.617838541666668 42.869140625  10.311848958333332 42.869140625  C 10.026258680555555 42.869140625  9.771267361111112 42.75694444444444  9.546875 42.53255208333333  C 6.9765625 40.20703125  5.293619791666666 38.49348958333333  4.498046875 37.39192708333333  C 4.355251736111112 37.18793402777778  4.283854166666666 36.95334201388889  4.283854166666666 36.68815104166667  C 4.283854166666666 36.443359375  4.365451388888889 36.20876736111111  4.528645833333334 35.984375  C 4.834635416666666 35.55598958333333  5.354817708333334 34.877712673611114  6.089192708333333 33.949544270833336  C 6.823567708333333 33.02137586805555  7.374348958333333 32.302300347222214  7.741536458333333 31.792317708333336  C 7.190755208333333 30.77235243055555  6.7725694444444455 29.76258680555555  6.486979166666667 28.763020833333336  L 0.8873697916666666 27.936848958333336  C 0.6221788194444445 27.896050347222225  0.4079861111111111 27.7685546875  0.24479166666666666 27.554361979166664  C 0.08159722222222222 27.340169270833336  0 27.10047743055555  0 26.835286458333336  L 0 20.042317708333332  C 0 19.797526041666668  0.08159722222222222 19.562934027777775  0.24479166666666666 19.338541666666668  C 0.4079861111111111 19.114149305555557  0.601779513888889 18.981553819444443  0.826171875 18.940755208333332  L 6.517578125 18.083984375  C 6.803168402777778 17.145616319444443  7.200954861111111 16.20724826388889  7.7109375 15.268880208333332  C 6.894965277777778 14.106119791666668  5.803602430555556 12.698567708333332  4.436848958333334 11.046223958333332  C 4.232855902777778 10.801432291666668  4.130859375 10.556640625  4.130859375 10.311848958333332  C 4.130859375 10.107855902777775  4.22265625 9.873263888888882  4.40625 9.608072916666668  C 4.936631944444445 8.873697916666668  5.941297743055556 7.777235243055551  7.420247395833333 6.318684895833331  C 8.899197048611112 4.860134548611107  9.863064236111112 4.130859375  10.311848958333332 4.130859375  C 10.577039930555555 4.130859375  10.842230902777779 4.232855902777775  11.107421875 4.436848958333331  L 15.330078125 7.7109375  C 16.227647569444446 7.24175347222222  17.155815972222225 6.854166666666669  18.114583333333336 6.548177083333331  C 18.440972222222225 3.7738715277777755  18.73676215277778 1.8767361111111072  19.001953125 0.8567708333333316  C 19.14474826388889 0.28559027777777546  19.51193576388889 0  20.103515625 0  L 26.896484375 0  C 27.182074652777782 0  27.431966145833332 0.08669704861110705  27.646158854166668 0.2600911458333316  C 27.8603515625 0.4334852430555509  27.977647569444443 0.6527777777777755  27.998046875 0.91796875  L 28.854817708333332 6.548177083333331  C 29.854383680555557 6.87456597222222  30.772352430555557 7.251953125  31.608723958333332 7.680338541666669  L 35.95377604166667 4.40625  C 36.13736979166667 4.22265625  36.38216145833333 4.130859375  36.68815104166667 4.130859375  C 36.95334201388889 4.130859375  37.20833333333333 4.232855902777775  37.453125 4.436848958333331  C 40.08463541666667 6.864366319444444  41.767578125 8.598307291666668  42.501953125 9.638671875  C 42.64474826388889 9.801866319444445  42.71614583333333 10.02625868055555  42.71614583333333 10.311848958333332  C 42.71614583333333 10.556640625  42.634548611111114 10.791232638888882  42.47135416666667 11.015625  C 42.16536458333333 11.444010416666668  41.64518229166667 12.122287326388882  40.91080729166667 13.050455729166668  C 40.17643229166667 13.978624131944445  39.62565104166667 14.697699652777775  39.25846354166667 15.207682291666668  C 39.788845486111114 16.227647569444443  40.20703125 17.227213541666664  40.51302083333333 18.206380208333332  L 46.11263020833333 19.063151041666668  C 46.37782118055556 19.103949652777775  46.59201388888889 19.231445312499996  46.75520833333333 19.445638020833332  Z " fill-rule="nonzero" fill="#000000" stroke="none" transform="matrix(1 0 0 1 100 167 )" />
  </g>
</svg>