<?xml version="1.0" encoding="utf-8"?>
<svg version="1.1" xmlns:xlink="http://www.w3.org/1999/xlink" width="38px" height="25px" xmlns="http://www.w3.org/2000/svg">
  <g transform="matrix(1 0 0 1 -171 -703 )">
    <path d="M 37.16100543478261 10.020860077021823  C 37.72033514492753 10.42201540436457  38 10.906076166024818  38 11.473042362002566  L 38 13.526957637997434  C 38 14.09392383397518  37.72033514492753 14.57798459563543  37.16100543478261 14.979139922978177  C 36.60167572463769 15.380295250320925  35.87454710144928 15.5808729139923  34.97961956521739 15.5808729139923  L 16.80570652173913 15.5808729139923  L 24.369565217391305 20.298459563543002  C 25.023550724637683 20.683568677792042  25.35054347826087 21.164955070603337  25.35054347826087 21.742618741976894  C 25.35054347826087 22.32028241335045  25.023550724637683 22.801668806161747  24.369565217391305 23.186777920410783  L 22.433423913043477 24.406290115532734  C 21.79664855072464 24.80209670517758  21.022192028985508 25  20.110054347826086 25  C 19.215126811594203 25  18.432065217391305 24.80209670517758  17.76086956521739 24.406290115532734  L 0.9551630434782609 13.94415917843389  C 0.3183876811594205 13.548352588789045  0 13.066966195977747  0 12.5  C 0 11.943731279418056  0.3183876811594205 11.456996148908857  0.9551630434782609 11.0397946084724  L 17.76086956521739 0.6097560975609762  C 18.41485507246377 0.20325203252032353  19.197916666666668 0  20.110054347826086 0  C 21.004981884057973 0  21.779438405797105 0.20325203252032353  22.433423913043477 0.6097560975609762  L 24.369565217391305 1.7971758664955066  C 25.023550724637683 2.203679931536157  25.35054347826087 2.6904150620453535  25.35054347826087 3.2573812580231065  C 25.35054347826087 3.8243474540008537  25.023550724637683 4.3110825845100536  24.369565217391305 4.717586649550706  L 16.80570652173913 9.419127086007704  L 34.97961956521739 9.419127086007704  C 35.87454710144928 9.419127086007704  36.60167572463769 9.619704749679075  37.16100543478261 10.020860077021823  Z " fill-rule="nonzero" fill="#000000" stroke="none" transform="matrix(1 0 0 1 171 703 )" />
  </g>
</svg>