<?xml version="1.0" encoding="utf-8"?>
<svg version="1.1" xmlns:xlink="http://www.w3.org/1999/xlink" width="47px" height="25px" xmlns="http://www.w3.org/2000/svg">
  <g transform="matrix(1 0 0 1 -290 -704 )">
    <path d="M 45.81861413043478 11.05584082156611  C 46.60620471014493 11.430252460419341  47 11.911638853230636  47 12.5  C 47 13.077663671373557  46.60620471014493 13.564398801882755  45.81861413043478 13.9602053915276  L 25.032608695652176 24.406290115532734  C 24.202445652173914 24.80209670517758  23.233922101449277 25  22.12703804347826 25  C 21.041440217391305 25  20.083559782608695 24.80209670517758  19.253396739130434 24.406290115532734  L 16.858695652173914 23.202824133504492  C 16.04981884057971 22.796320068463842  15.64538043478261 22.30958493795464  15.64538043478261 21.742618741976894  C 15.64538043478261 21.175652545999146  16.04981884057971 20.688917415489943  16.858695652173914 20.282413350449293  L 26.213994565217394 15.5808729139923  L 3.7357336956521743 15.5808729139923  C 2.6288496376811596 15.5808729139923  1.7295063405797104 15.380295250320925  1.0377038043478262 14.979139922978177  C 0.34590126811594196 14.57798459563543  0 14.09392383397518  0 13.526957637997434  L 0 11.473042362002566  C 0 10.906076166024818  0.34590126811594196 10.42201540436457  1.0377038043478262 10.020860077021823  C 1.7295063405797104 9.619704749679075  2.6288496376811596 9.419127086007704  3.7357336956521743 9.419127086007704  L 26.213994565217394 9.419127086007704  L 16.858695652173914 4.701540436456996  C 16.04981884057971 4.316431322207959  15.64538043478261 3.8350449293966635  15.64538043478261 3.2573812580231065  C 15.64538043478261 2.679717586649552  16.04981884057971 2.1983311938382544  16.858695652173914 1.8132220795892162  L 19.253396739130434 0.6097560975609762  C 20.06227355072464 0.20325203252032353  21.020153985507246 0  22.12703804347826 0  C 23.255208333333336 0  24.223731884057973 0.20325203252032353  25.032608695652176 0.6097560975609762  L 45.81861413043478 11.05584082156611  Z " fill-rule="nonzero" fill="#000000" stroke="none" transform="matrix(1 0 0 1 290 704 )" />
  </g>
</svg>