<?xml version="1.0" encoding="utf-8"?>
<svg version="1.1" xmlns:xlink="http://www.w3.org/1999/xlink" width="50px" height="50px" xmlns="http://www.w3.org/2000/svg">
  <g transform="matrix(1 0 0 1 -1093 -558 )">
    <path d="M 13 33  L 13 45  L 37 45  L 37 33  L 13 33  Z M 41 32.291666666666664  L 41 45.83333333333333  L 45 45.83333333333333  L 45 16.666666666666668  C 45.83333333333333 16.362847222222214  45.72482638888889 15.94509548611111  45.5078125 15.413411458333332  C 45.290798611111114 14.881727430555552  45.07378472222223 14.507378472222216  44.85677083333333 14.290364583333332  L 35.70963541666667 5.143229166666669  C 35.492621527777786 4.926215277777773  35.12369791666667 4.709201388888884  34.60286458333333 4.4921875  C 34.08203125 4.275173611111111  33.65885416666667 4.166666666666669  33 4.166666666666669  L 33 17.708333333333332  C 33.33333333333333 18.57638888888889  33.02951388888889 19.31423611111111  32.421875 19.921875  C 31.81423611111111 20.52951388888889  31.07638888888889 20.833333333333332  30.208333333333332 21  L 11.458333333333332 21  C 10.590277777777779 20.833333333333332  9.852430555555557 20.52951388888889  9.244791666666668 19.921875  C 8.637152777777779 19.31423611111111  8.333333333333332 18.57638888888889  9 17.708333333333332  L 9 4.166666666666669  L 5 4.166666666666669  L 5 45.83333333333333  L 9 45.83333333333333  L 9 32.291666666666664  C 8.333333333333332 31.423611111111104  8.637152777777779 30.685763888888886  9.244791666666668 30.078125  C 9.852430555555557 29.470486111111104  10.590277777777779 29.166666666666664  11.458333333333332 29  L 38.54166666666667 29  C 39.40972222222223 29.166666666666664  40.14756944444445 29.470486111111104  40.75520833333333 30.078125  C 41.36284722222223 30.685763888888886  41.66666666666667 31.423611111111104  41 32.291666666666664  Z M 28.857421875 16.357421875  C 29.063585069444446 16.151258680555554  29.166666666666668 15.907118055555552  29 15.625  L 29 5.208333333333331  C 29.166666666666668 4.926215277777773  29.063585069444446 4.682074652777773  28.857421875 4.475911458333331  C 28.651258680555557 4.269748263888884  28.407118055555557 4.166666666666669  28.125 4.166666666666669  L 21.875 4.166666666666669  C 21.592881944444446 4.166666666666669  21.348741319444446 4.269748263888884  21.142578125 4.475911458333331  C 20.936414930555557 4.682074652777773  20.833333333333336 4.926215277777773  21 5.208333333333331  L 21 15.625  C 20.833333333333336 15.907118055555552  20.936414930555557 16.151258680555554  21.142578125 16.357421875  C 21.348741319444446 16.563585069444443  21.592881944444446 16.666666666666668  21.875 16.666666666666668  L 28.125 16.666666666666668  C 28.407118055555557 16.666666666666668  28.651258680555557 16.563585069444443  28.857421875 16.357421875  Z M 49.34895833333333 13.802083333333332  C 49.78298611111111 14.84375  50 15.79861111111111  50 16.666666666666668  L 50 46.875  C 50 47.74305555555556  49.69618055555555 48.48090277777777  49.08854166666667 49.08854166666667  C 48.480902777777786 49.69618055555556  47.74305555555556 50  46.875 50  L 3.125 50  C 2.2569444444444446 50  1.5190972222222223 49.69618055555556  0.9114583333333334 49.08854166666667  C 0.3038194444444444 48.48090277777777  0 47.74305555555556  0 46.875  L 0 3.125  C 0 2.256944444444442  0.3038194444444444 1.5190972222222154  0.9114583333333334 0.9114583333333315  C 1.5190972222222223 0.303819444444442  2.2569444444444446 0  3.125 0  L 33.33333333333333 0  C 34.20138888888889 0  35.15625 0.21701388888888395  36.19791666666667 0.6510416666666685  C 37.23958333333333 1.085069444444442  38.064236111111114 1.6059027777777735  38.671875 2.2135416666666687  L 47.78645833333333 11.328125  C 48.39409722222223 11.935763888888884  48.91493055555556 12.760416666666668  49.34895833333333 13.802083333333332  Z " fill-rule="nonzero" fill="#000000" stroke="none" transform="matrix(1 0 0 1 1093 558 )" />
  </g>
</svg>