<?xml version="1.0" encoding="utf-8"?>
<svg version="1.1" xmlns:xlink="http://www.w3.org/1999/xlink" width="58px" height="54px" xmlns="http://www.w3.org/2000/svg">
  <g transform="matrix(1 0 0 1 -1183 -604 )">
    <path d="M 13.384615384615385 40  L 13.384615384615385 49  L 44.61538461538462 49  L 44.61538461538462 40  L 13.384615384615385 40  Z M 14 5  L 14 27  L 44 27  L 44 13.5  L 39.03846153846154 13.5  C 38.108974358974365 13.5  37.31891025641026 13.171874999999996  36.668269230769226 12.515625000000002  C 36.01762820512821 11.859374999999995  35.69230769230769 11.062499999999996  35.69230769230769 10.125  L 35.69230769230769 5  L 14 5  Z M 52.87620192307693 30.832031250000004  C 53.31770833333333 30.386718749999996  53.53846153846154 29.859374999999996  53.53846153846154 29.250000000000004  C 53.53846153846154 28.640625  53.31770833333333 28.11328125  52.87620192307693 27.667968750000004  C 52.43469551282052 27.222656249999996  51.91185897435898 27  51.30769230769231 27  C 50.70352564102564 27  50.18068910256411 27.222656249999996  49.73918269230769 27.667968750000004  C 49.29767628205129 28.11328125  49.07692307692307 28.640625  49.07692307692307 29.250000000000004  C 49.07692307692307 29.859374999999996  49.29767628205129 30.386718749999996  49.73918269230769 30.832031250000004  C 50.18068910256411 31.27734375  50.70352564102564 31.499999999999996  51.30769230769231 31.499999999999996  C 51.91185897435898 31.499999999999996  52.43469551282052 31.27734375  52.87620192307693 30.832031250000004  Z M 56.03064903846154 24.486328125000004  C 57.34354967948718 25.810546875  58 27.398437499999993  58 29.250000000000004  L 58 43.875  C 58 44.1796875  57.8896233974359 44.443359375  57.66887019230769 44.666015625  C 57.44811698717949 44.888671875  57.186698717948715 45  56.88461538461538 45  L 49.07692307692307 45  L 49.07692307692307 50.625  C 49.07692307692307 51.5625  48.75160256410256 52.35937499999999  48.10096153846154 53.015625  C 47.45032051282052 53.671875  46.66025641025641 54  45.730769230769226 54  L 12.269230769230768 54  C 11.339743589743591 54  10.549679487179489 53.671875  9.899038461538462 53.015625  C 9.248397435897436 52.35937499999999  8.923076923076923 51.5625  8.923076923076923 50.625  L 8.923076923076923 45  L 1.1153846153846154 45  C 0.8133012820512822 45  0.5518830128205129 44.888671875  0.33112980769230765 44.666015625  C 0.11037660256410256 44.443359375  0 44.1796875  0 43.875  L 0 29.250000000000004  C 0 27.398437499999993  0.6564503205128205 25.810546875  1.9693509615384615 24.486328125000004  C 3.2822516025641026 23.162109375000004  4.856570512820514 22.499999999999996  6.6923076923076925 22.499999999999996  L 9 22.499999999999996  L 9 3.375  C 8.923076923076923 2.4374999999999973  9.248397435897436 1.6406249999999927  9.899038461538462 0.984374999999998  C 10.549679487179489 0.32812499999999734  11.339743589743591 0  12.269230769230768 0  L 35.69230769230769 0  C 36.621794871794876 0  37.644230769230774 0.23437499999999467  38.75961538461538 0.703125000000002  C 39.875 1.1718749999999973  40.758012820512825 1.7343749999999953  41.40865384615385 2.3906250000000018  L 46.706730769230774 7.734374999999998  C 47.3573717948718 8.390624999999993  47.91506410256411 9.28125  48.37980769230769 10.406250000000002  C 48.84455128205129 11.531249999999998  49.07692307692307 12.562499999999996  49.07692307692307 13.5  L 49.07692307692307 22.499999999999996  L 51.30769230769231 22.499999999999996  C 53.143429487179496 22.499999999999996  54.7177483974359 23.162109375000004  56.03064903846154 24.486328125000004  Z " fill-rule="nonzero" fill="#000000" stroke="none" transform="matrix(1 0 0 1 1183 604 )" />
  </g>
</svg>