<?xml version="1.0" encoding="utf-8"?>
<svg version="1.1" xmlns:xlink="http://www.w3.org/1999/xlink" width="6px" height="46px" xmlns="http://www.w3.org/2000/svg">
  <g transform="matrix(1 0 0 1 -53 -205 )">
    <path d="M 5.742857142857143 34.07407407407407  C 5.851948051948052 34.07407407407407  5.927272727272728 34.24266975308642  5.968831168831169 34.579861111111114  C 6.010389610389611 34.91705246913581  5.997402597402598 35.22762345679012  5.92987012987013 35.51157407407407  L 3.2025974025974024 45.73379629629629  C 3.150649350649351 45.911265432098766  3.090909090909091 46  3.023376623376623 46  C 2.9506493506493507 46  2.8883116883116884 45.911265432098766  2.8363636363636364 45.73379629629629  L 0.07012987012987013 35.51157407407407  C 0.0025974025974025913 35.22762345679012  -0.010389610389610395 34.91705246913581  0.03116883116883117 34.579861111111114  C 0.07792207792207792 34.24266975308642  0.15324675324675324 34.07407407407407  0.2571428571428571 34.07407407407407  L 2 34.07407407407407  L 2 0.8518518518518505  C 2.0025974025974027 0.6033950617283901  2.025974025974026 0.3993055555555567  2.0727272727272728 0.23958333333333504  C 2.1194805194805193 0.07986111111111338  2.1792207792207794 0  2.251948051948052 0  L 3.7480519480519483 0  C 3.8207792207792206 0  3.8805194805194807 0.07986111111111338  3.9272727272727272 0.23958333333333504  C 3.974025974025974 0.3993055555555567  3.9974025974025977 0.6033950617283901  4 0.8518518518518505  L 4 34.07407407407407  L 5.742857142857143 34.07407407407407  Z " fill-rule="nonzero" fill="#000000" stroke="none" transform="matrix(1 0 0 1 53 205 )" />
  </g>
</svg>