<?xml version="1.0" encoding="utf-8"?>
<svg version="1.1" xmlns:xlink="http://www.w3.org/1999/xlink" width="40px" height="30px" xmlns="http://www.w3.org/2000/svg">
  <g transform="matrix(1 0 0 1 -551 -919 )">
    <path d="M 39.11684782608696 12.025032092426187  C 39.70561594202898 12.506418485237486  40 13.08729139922978  40 13.76765083440308  L 40 16.23234916559692  C 40 16.912708600770216  39.70561594202898 17.493581514762514  39.11684782608696 17.974967907573813  C 38.52807971014493 18.456354300385108  37.762681159420296 18.69704749679076  36.82065217391304 18.69704749679076  L 17.690217391304348 18.69704749679076  L 25.652173913043477 24.358151476251603  C 26.34057971014493 24.820282413350448  26.684782608695656 25.397946084724005  26.684782608695656 26.09114249037227  C 26.684782608695656 26.78433889602054  26.34057971014493 27.362002567394093  25.652173913043477 27.82413350449294  L 23.61413043478261 29.28754813863928  C 22.943840579710148 29.762516046213094  22.128623188405797 30  21.168478260869566 30  C 20.22644927536232 30  19.40217391304348 29.762516046213094  18.695652173913043 29.28754813863928  L 1.0054347826086958 16.732991014120667  C 0.33514492753623215 16.258023106546855  0 15.680359435173298  0 15  C 0 14.332477535301669  0.33514492753623215 13.74839537869063  1.0054347826086958 13.24775353016688  L 18.695652173913043 0.7317073170731714  C 19.384057971014496 0.24390243902438824  20.208333333333336 0  21.168478260869566 0  C 22.110507246376812 0  22.925724637681164 0.24390243902438824  23.61413043478261 0.7317073170731714  L 25.652173913043477 2.1566110397946083  C 26.34057971014493 2.644415917843388  26.684782608695656 3.2284980744544245  26.684782608695656 3.908857509627728  C 26.684782608695656 4.5892169448010245  26.34057971014493 5.173299101412065  25.652173913043477 5.661103979460847  L 17.690217391304348 11.302952503209244  L 36.82065217391304 11.302952503209244  C 37.762681159420296 11.302952503209244  38.52807971014493 11.54364569961489  39.11684782608696 12.025032092426187  Z " fill-rule="nonzero" fill="#000000" stroke="none" transform="matrix(1 0 0 1 551 919 )" />
  </g>
</svg>