<?xml version="1.0" encoding="utf-8"?>
<svg version="1.1" xmlns:xlink="http://www.w3.org/1999/xlink" width="36px" height="36px" xmlns="http://www.w3.org/2000/svg">
  <g transform="matrix(1 0 0 1 -1233 -773 )">
    <path d="M 16 10.285714285714285  L 16 33  L 33 33  L 33 20.57142857142857  L 25.07142857142857 20.57142857142857  C 24.535714285714292 20.57142857142857  24.080357142857142 20.383928571428573  23.705357142857146 20.00892857142857  C 23.330357142857146 19.63392857142857  23.142857142857146 19.178571428571427  23.142857142857146 18.64285714285714  L 23.142857142857146 10.285714285714285  L 16 10.285714285714285  Z M 20.380580357142854 4.95200892857143  C 20.5078125 4.824776785714284  20.57142857142857 4.674107142857139  20.57142857142857 4.5  L 20.57142857142857 3.214285714285715  C 20.57142857142857 3.0401785714285716  20.5078125 2.889508928571427  20.380580357142854 2.762276785714285  C 20.25334821428572 2.6350446428571392  20.102678571428573 2.5714285714285703  19.92857142857143 3  L 5.7857142857142865 3  C 5.611607142857144 2.5714285714285703  5.4609375 2.6350446428571392  5.333705357142858 2.762276785714285  C 5.206473214285714 2.889508928571427  5.142857142857142 3.0401785714285716  5.142857142857142 3.214285714285715  L 5.142857142857142 4.5  C 5.142857142857142 4.674107142857139  5.206473214285714 4.824776785714284  5.333705357142858 4.95200892857143  C 5.4609375 5.079241071428571  5.611607142857144 5.142857142857144  5.7857142857142865 5.142857142857144  L 19.92857142857143 5.142857142857144  C 20.102678571428573 5.142857142857144  20.25334821428572 5.079241071428571  20.380580357142854 4.95200892857143  Z M 25.714285714285715 11.99330357142857  L 25.714285714285715 18  L 31.720982142857146 18  L 25.714285714285715 11.99330357142857  Z M 35.598214285714285 18.80357142857143  C 35.86607142857143 19.44642857142857  36 20.035714285714285  36 20.57142857142857  L 36 34.07142857142857  C 36 34.60714285714286  35.8125 35.0625  35.4375 35.4375  C 35.0625 35.8125  34.60714285714286 36  34.07142857142857 36  L 14.785714285714285 36  C 14.250000000000002 36  13.794642857142858 35.8125  13.419642857142858 35.4375  C 13.04464285714286 35.0625  12.857142857142858 34.60714285714286  12.857142857142858 34.07142857142857  L 12.857142857142858 30.85714285714286  L 1.9285714285714284 30.85714285714286  C 1.3928571428571432 30.85714285714286  0.9375 30.669642857142858  0.5625 30.29464285714286  C 0.1875 29.919642857142858  0 29.464285714285715  0 28.92857142857143  L 0 1.9285714285714297  C 0 1.392857142857142  0.1875 0.9374999999999987  0.5625 0.5625  C 0.9375 0.18750000000000133  1.3928571428571432 0  1.9285714285714284 0  L 23.785714285714285 0  C 24.321428571428573 0  24.776785714285715 0.18750000000000133  25.151785714285715 0.5625  C 25.52678571428572 0.9374999999999987  25.714285714285715 1.392857142857142  25.714285714285715 1.9285714285714297  L 25.714285714285715 8.517857142857144  C 25.995535714285715 8.691964285714285  26.236607142857146 8.879464285714285  26.4375 9.080357142857144  L 34.63392857142857 17.276785714285715  C 35.00892857142858 17.651785714285715  35.330357142857146 18.160714285714285  35.598214285714285 18.80357142857143  Z " fill-rule="nonzero" fill="#000000" stroke="none" transform="matrix(1 0 0 1 1233 773 )" />
  </g>
</svg>