<?xml version="1.0" encoding="utf-8"?>
<svg version="1.1" xmlns:xlink="http://www.w3.org/1999/xlink" width="30px" height="25px" xmlns="http://www.w3.org/2000/svg">
  <g transform="matrix(1 0 0 1 -976 -1182 )">
    <path d="M 29.33763586956522 10.020860077021823  C 29.779211956521735 10.42201540436457  30 10.906076166024818  30 11.473042362002566  L 30 13.526957637997434  C 30 14.09392383397518  29.779211956521735 14.57798459563543  29.33763586956522 14.979139922978177  C 28.8960597826087 15.380295250320925  28.32201086956522 15.5808729139923  27.61548913043478 15.5808729139923  L 13.267663043478262 15.5808729139923  L 19.23913043478261 20.298459563543002  C 19.7554347826087 20.683568677792042  20.013586956521742 21.164955070603337  20.013586956521742 21.742618741976894  C 20.013586956521742 22.32028241335045  19.7554347826087 22.801668806161747  19.23913043478261 23.186777920410783  L 17.710597826086957 24.406290115532734  C 17.20788043478261 24.80209670517758  16.596467391304348 25  15.876358695652174 25  C 15.16983695652174 25  14.55163043478261 24.80209670517758  14.021739130434783 24.406290115532734  L 0.7540760869565217 13.94415917843389  C 0.2513586956521741 13.548352588789045  0 13.066966195977747  0 12.5  C 0 11.943731279418056  0.2513586956521741 11.456996148908857  0.7540760869565217 11.0397946084724  L 14.021739130434783 0.6097560975609762  C 14.538043478260871 0.20325203252032353  15.156250000000002 0  15.876358695652174 0  C 16.58288043478261 0  17.19429347826087 0.20325203252032353  17.710597826086957 0.6097560975609762  L 19.23913043478261 1.7971758664955066  C 19.7554347826087 2.203679931536157  20.013586956521742 2.6904150620453535  20.013586956521742 3.2573812580231065  C 20.013586956521742 3.8243474540008537  19.7554347826087 4.3110825845100536  19.23913043478261 4.717586649550706  L 13.267663043478262 9.419127086007704  L 27.61548913043478 9.419127086007704  C 28.32201086956522 9.419127086007704  28.8960597826087 9.619704749679075  29.33763586956522 10.020860077021823  Z " fill-rule="nonzero" fill="#000000" stroke="none" transform="matrix(1 0 0 1 976 1182 )" />
  </g>
</svg>