<?xml version="1.0" encoding="utf-8"?>
<svg version="1.1" xmlns:xlink="http://www.w3.org/1999/xlink" width="47px" height="40px" xmlns="http://www.w3.org/2000/svg">
  <g transform="matrix(1 0 0 1 -100 -100 )">
    <path d="M 40.24411400247831 22.8526890101325  C 40.26352746798843 22.894258248895817  40.273234200743495 22.95661210704079  40 23.03975058456742  L 40 38.00467653936087  C 40.273234200743495 38.54507664328396  40.088806278397364 39.012730579371265  39.71995043370508 39.40763834762276  C 39.35109458901281 39.80254611587426  38.91429161503512 40  38.40954151177199 40  L 27 40  L 27 28.02805923616524  L 20 28.02805923616524  L 20 40  L 8.590458488228006 40  C 8.085708384964892 40  7.648905410987196 39.80254611587426  7.280049566294919 39.40763834762276  C 6.911193721602644 39.012730579371265  6.726765799256505 38.54507664328396  7 38.00467653936087  L 7 23.03975058456742  C 6.726765799256505 23.01896596518576  6.731619165634036 22.987789036113277  6.741325898389095 22.94621979734996  C 6.751032631144156 22.904650558586646  6.755885997521686 22.87347362951416  6.755885997521686 22.8526890101325  L 23.5 8.074824629773968  L 40.24411400247831 22.8526890101325  Z M 46.97087980173482 20.155884645362434  C 46.990293267244944 20.43647700701481  46.92234613795952 20.680696284749285  46.76703841387856 20.888542478565864  L 44.96158612143742 23.195635229929856  C 44.806278397356465 23.382696804364773  44.60243700950021 23.497012210963888  44.35006195786865 23.538581449727204  L 44.262701363073106 23.538581449727204  C 44.01032631144155 23.538581449727204  43.8064849235853 23.465835281891398  43.65117719950434 23.320342946219796  L 23.5 5.331254871395168  L 3.348822800495663 23.320342946219796  C 3.1158612143742257 23.486619901273052  2.882899628252788 23.559366069108858  2.6499380421313505 23.538581449727204  C 2.3975629904997935 23.497012210963888  2.193721602643536 23.382696804364773  2.038413878562577 23.195635229929856  L 0.23296158612143741 20.888542478565864  C 0.07765386204047918 20.680696284749285  0.009706732755059962 20.43647700701481  0.029120198265179677 20.155884645362434  C 0.04853366377529961 19.875292283710056  0.15530772408095836 19.651857625357234  0.3494423791821561 19.485580670303975  L 21.286864931846345 0.8106001558846465  C 21.90809582817018 0.2702000519615444  22.64580751755473 0  23.5 0  C 24.354192482445274 0  25.091904171829825 0.2702000519615444  25.713135068153655 0.8106001558846465  L 32.8184634448575 7.170693686671861  L 32.8184634448575 1.0911925175370207  C 32.8184634448575 0.8002078461938122  32.905824039653034 0.5611847233047529  33.080545229244116 0.3741231488698382  C 33.25526641883519 0.1870615744349191  33.47852127220157 0.09353078721745955  33.75030978934325 0.09353078721745955  L 39.34138785625775 0.09353078721745955  C 39.613176373399426 0.09353078721745955  39.8364312267658 0.1870615744349191  40.01115241635688 0.3741231488698382  C 40.185873605947954 0.5611847233047529  40.273234200743495 0.8002078461938122  40 1.0911925175370207  L 40 13.811379579111458  L 46.65055762081784 19.485580670303975  C 46.844692275919044 19.651857625357234  46.951466336224705 19.875292283710056  46.97087980173482 20.155884645362434  Z " fill-rule="nonzero" fill="#000000" stroke="none" transform="matrix(1 0 0 1 100 100 )" />
  </g>
</svg>