<?xml version="1.0" encoding="utf-8"?>
<svg version="1.1" xmlns:xlink="http://www.w3.org/1999/xlink" width="151px" height="175px" xmlns="http://www.w3.org/2000/svg">
  <g transform="matrix(1 0 0 1 -120 -184 )">
    <path d="M 113.64322916666666 6.640625000000005  L 144.31510416666666 37.10937499999999  C 146.15017361111111 38.93229166666666  147.72309027777777 41.40625000000001  149.03385416666666 44.53125  C 150.34461805555554 47.65625000000001  151 50.52083333333333  151 53.12500000000001  L 151 165.625  C 151 168.22916666666666  150.08246527777777 170.44270833333331  148.24739583333334 172.265625  C 146.4123263888889 174.08854166666669  144.18402777777777 175  141.5625 175  L 9.4375 175  C 6.815972222222223 175  4.587673611111112 174.08854166666669  2.752604166666667 172.265625  C 0.9175347222222221 170.44270833333331  0 168.22916666666666  0 165.625  L 0 9.375000000000005  C 0 6.770833333333329  0.9175347222222221 4.55729166666666  2.752604166666667 2.734375  C 4.587673611111112 0.9114583333333398  6.815972222222223 0  9.4375 0  L 97.52083333333334 0  C 100.14236111111113 0  103.02604166666666 0.6510416666666741  106.171875 1.9531250000000027  C 109.31770833333334 3.2552083333333313  111.80815972222223 4.817708333333326  113.64322916666666 6.640625000000005  Z M 104.697265625 15.429687500000009  C 103.91080729166666 14.648437499999991  102.56727430555557 13.932291666666647  100 13.281249999999991  L 100 50  L 137.63020833333334 50  C 136.9748263888889 48.11197916666664  136.25390625 46.77734374999999  135.46744791666666 45.99609374999999  L 104.697265625 15.429687500000009  Z M 13 162  L 138 162  L 138 63  L 97.52083333333334 63  C 94.89930555555556 62.49999999999999  92.67100694444444 61.58854166666665  90.8359375 59.76562499999999  C 89.00086805555556 57.94270833333333  88.08333333333334 55.72916666666664  88 53.12500000000001  L 88 13  L 13 13  L 13 162  Z M 94.375 87.5  L 125 118.75  L 125 150  L 26 150  L 26 131.25  L 44.04166666666667 112.49999999999999  L 56.625 125  L 94.375 87.5  Z M 57.41145833333333 94.53125  C 53.74131944444446 98.17708333333331  49.28472222222222 100  44.04166666666667 100  C 38.798611111111114 100  34.34201388888889 98.17708333333331  30.671875 94.53125  C 27.00173611111111 90.88541666666667  25.166666666666664 86.45833333333331  25.166666666666664 81.25  C 25.166666666666664 76.04166666666667  27.00173611111111 71.61458333333333  30.671875 67.96874999999999  C 34.34201388888889 64.32291666666666  38.798611111111114 62.49999999999999  44.04166666666667 62.49999999999999  C 49.28472222222222 62.49999999999999  53.74131944444446 64.32291666666666  57.41145833333333 67.96874999999999  C 61.08159722222222 71.61458333333333  62.91666666666667 76.04166666666667  62.91666666666667 81.25  C 62.91666666666667 86.45833333333331  61.08159722222222 90.88541666666667  57.41145833333333 94.53125  Z " fill-rule="nonzero" fill="#000000" stroke="none" transform="matrix(1 0 0 1 120 184 )" />
  </g>
</svg>