<?xml version="1.0" encoding="utf-8"?>
<svg version="1.1" xmlns:xlink="http://www.w3.org/1999/xlink" width="40px" height="40px" xmlns="http://www.w3.org/2000/svg">
  <defs>
    <mask fill="white" id="clip22">
      <path d="M 9.9609375 2.682291666666665  C 13.02517361111111 0.8940972222222188  16.37152777777778 0  20 0  C 23.62847222222222 0  26.974826388888893 0.8940972222222188  30.0390625 2.682291666666665  C 33.103298611111114 4.470486111111107  35.52951388888889 6.896701388888888  37.317708333333336 9.9609375  C 39.10590277777777 13.025173611111107  40 16.37152777777777  40 20  C 40 23.62847222222222  39.10590277777777 26.974826388888886  37.317708333333336 30.0390625  C 35.52951388888889 33.103298611111114  33.103298611111114 35.529513888888886  30.0390625 37.317708333333336  C 26.974826388888893 39.10590277777778  23.62847222222222 40  20 40  C 16.37152777777778 40  13.02517361111111 39.10590277777778  9.9609375 37.317708333333336  C 6.896701388888889 35.529513888888886  4.470486111111112 33.103298611111114  2.682291666666667 30.0390625  C 0.8940972222222221 26.974826388888886  0 23.62847222222222  0 20  C 0 16.37152777777777  0.8940972222222221 13.025173611111107  2.682291666666667 9.9609375  C 4.470486111111112 6.896701388888888  6.896701388888889 4.470486111111107  9.9609375 2.682291666666665  Z M 23.098958333333336 33.0859375  C 23.255208333333336 32.92100694444444  23.333333333333336 32.717013888888886  23.333333333333336 32.473958333333336  L 23.333333333333336 27.52604166666667  C 23.333333333333336 27.282986111111107  23.255208333333336 27.078993055555554  23.098958333333336 26.9140625  C 22.942708333333336 26.749131944444446  22.75173611111111 26.66666666666667  22.526041666666664 26.66666666666667  L 17.526041666666668 26.66666666666667  C 17.30034722222222 26.66666666666667  17.100694444444446 26.75347222222222  16.927083333333332 26.92708333333333  C 16.75347222222222 27.100694444444436  16.666666666666668 27.30034722222222  16.666666666666668 27.52604166666667  L 16.666666666666668 32.473958333333336  C 16.666666666666668 32.69965277777778  16.75347222222222 32.89930555555556  16.927083333333332 33.072916666666664  C 17.100694444444446 33.24652777777778  17.30034722222222 33.333333333333336  17.526041666666668 33.333333333333336  L 22.526041666666664 33.333333333333336  C 22.75173611111111 33.333333333333336  22.942708333333336 33.25086805555556  23.098958333333336 33.0859375  Z M 23.0078125 23.97135416666667  C 23.172743055555557 23.84114583333333  23.26388888888889 23.689236111111107  23.28125 23.515625  L 23.75 7.34375  C 23.750000000000004 7.135416666666665  23.663194444444446 6.979166666666665  23.489583333333336 6.875  C 23.31597222222222 6.736111111111107  23.10763888888889 6.666666666666665  22.864583333333336 6.666666666666665  L 17.135416666666668 6.666666666666665  C 16.892361111111114 6.666666666666665  16.68402777777778 6.736111111111107  16.510416666666668 6.875  C 16.336805555555557 6.979166666666665  16.25 7.135416666666665  16.25 7.34375  L 16.692708333333332 23.515625  C 16.692708333333332 23.689236111111107  16.77951388888889 23.84114583333333  16.953125 23.97135416666667  C 17.126736111111114 24.1015625  17.335069444444446 24.16666666666667  17.578125 24.16666666666667  L 22.395833333333336 24.16666666666667  C 22.63888888888889 24.16666666666667  22.842881944444446 24.1015625  23.0078125 23.97135416666667  Z " fill-rule="evenodd" />
    </mask>
  </defs>
  <g transform="matrix(1 0 0 1 -30 -42 )">
    <path d="M 9.9609375 2.682291666666665  C 13.02517361111111 0.8940972222222188  16.37152777777778 0  20 0  C 23.62847222222222 0  26.974826388888893 0.8940972222222188  30.0390625 2.682291666666665  C 33.103298611111114 4.470486111111107  35.52951388888889 6.896701388888888  37.317708333333336 9.9609375  C 39.10590277777777 13.025173611111107  40 16.37152777777777  40 20  C 40 23.62847222222222  39.10590277777777 26.974826388888886  37.317708333333336 30.0390625  C 35.52951388888889 33.103298611111114  33.103298611111114 35.529513888888886  30.0390625 37.317708333333336  C 26.974826388888893 39.10590277777778  23.62847222222222 40  20 40  C 16.37152777777778 40  13.02517361111111 39.10590277777778  9.9609375 37.317708333333336  C 6.896701388888889 35.529513888888886  4.470486111111112 33.103298611111114  2.682291666666667 30.0390625  C 0.8940972222222221 26.974826388888886  0 23.62847222222222  0 20  C 0 16.37152777777777  0.8940972222222221 13.025173611111107  2.682291666666667 9.9609375  C 4.470486111111112 6.896701388888888  6.896701388888889 4.470486111111107  9.9609375 2.682291666666665  Z M 23.098958333333336 33.0859375  C 23.255208333333336 32.92100694444444  23.333333333333336 32.717013888888886  23.333333333333336 32.473958333333336  L 23.333333333333336 27.52604166666667  C 23.333333333333336 27.282986111111107  23.255208333333336 27.078993055555554  23.098958333333336 26.9140625  C 22.942708333333336 26.749131944444446  22.75173611111111 26.66666666666667  22.526041666666664 26.66666666666667  L 17.526041666666668 26.66666666666667  C 17.30034722222222 26.66666666666667  17.100694444444446 26.75347222222222  16.927083333333332 26.92708333333333  C 16.75347222222222 27.100694444444436  16.666666666666668 27.30034722222222  16.666666666666668 27.52604166666667  L 16.666666666666668 32.473958333333336  C 16.666666666666668 32.69965277777778  16.75347222222222 32.89930555555556  16.927083333333332 33.072916666666664  C 17.100694444444446 33.24652777777778  17.30034722222222 33.333333333333336  17.526041666666668 33.333333333333336  L 22.526041666666664 33.333333333333336  C 22.75173611111111 33.333333333333336  22.942708333333336 33.25086805555556  23.098958333333336 33.0859375  Z M 23.0078125 23.97135416666667  C 23.172743055555557 23.84114583333333  23.26388888888889 23.689236111111107  23.28125 23.515625  L 23.75 7.34375  C 23.750000000000004 7.135416666666665  23.663194444444446 6.979166666666665  23.489583333333336 6.875  C 23.31597222222222 6.736111111111107  23.10763888888889 6.666666666666665  22.864583333333336 6.666666666666665  L 17.135416666666668 6.666666666666665  C 16.892361111111114 6.666666666666665  16.68402777777778 6.736111111111107  16.510416666666668 6.875  C 16.336805555555557 6.979166666666665  16.25 7.135416666666665  16.25 7.34375  L 16.692708333333332 23.515625  C 16.692708333333332 23.689236111111107  16.77951388888889 23.84114583333333  16.953125 23.97135416666667  C 17.126736111111114 24.1015625  17.335069444444446 24.16666666666667  17.578125 24.16666666666667  L 22.395833333333336 24.16666666666667  C 22.63888888888889 24.16666666666667  22.842881944444446 24.1015625  23.0078125 23.97135416666667  Z " fill-rule="nonzero" fill="#fdff82" stroke="none" transform="matrix(1 0 0 1 30 42 )" />
    <path d="M 9.9609375 2.682291666666665  C 13.02517361111111 0.8940972222222188  16.37152777777778 0  20 0  C 23.62847222222222 0  26.974826388888893 0.8940972222222188  30.0390625 2.682291666666665  C 33.103298611111114 4.470486111111107  35.52951388888889 6.896701388888888  37.317708333333336 9.9609375  C 39.10590277777777 13.025173611111107  40 16.37152777777777  40 20  C 40 23.62847222222222  39.10590277777777 26.974826388888886  37.317708333333336 30.0390625  C 35.52951388888889 33.103298611111114  33.103298611111114 35.529513888888886  30.0390625 37.317708333333336  C 26.974826388888893 39.10590277777778  23.62847222222222 40  20 40  C 16.37152777777778 40  13.02517361111111 39.10590277777778  9.9609375 37.317708333333336  C 6.896701388888889 35.529513888888886  4.470486111111112 33.103298611111114  2.682291666666667 30.0390625  C 0.8940972222222221 26.974826388888886  0 23.62847222222222  0 20  C 0 16.37152777777777  0.8940972222222221 13.025173611111107  2.682291666666667 9.9609375  C 4.470486111111112 6.896701388888888  6.896701388888889 4.470486111111107  9.9609375 2.682291666666665  Z " stroke-width="2" stroke="#000000" fill="none" transform="matrix(1 0 0 1 30 42 )" mask="url(#clip22)" />
    <path d="M 23.098958333333336 33.0859375  C 23.255208333333336 32.92100694444444  23.333333333333336 32.717013888888886  23.333333333333336 32.473958333333336  L 23.333333333333336 27.52604166666667  C 23.333333333333336 27.282986111111107  23.255208333333336 27.078993055555554  23.098958333333336 26.9140625  C 22.942708333333336 26.749131944444446  22.75173611111111 26.66666666666667  22.526041666666664 26.66666666666667  L 17.526041666666668 26.66666666666667  C 17.30034722222222 26.66666666666667  17.100694444444446 26.75347222222222  16.927083333333332 26.92708333333333  C 16.75347222222222 27.100694444444436  16.666666666666668 27.30034722222222  16.666666666666668 27.52604166666667  L 16.666666666666668 32.473958333333336  C 16.666666666666668 32.69965277777778  16.75347222222222 32.89930555555556  16.927083333333332 33.072916666666664  C 17.100694444444446 33.24652777777778  17.30034722222222 33.333333333333336  17.526041666666668 33.333333333333336  L 22.526041666666664 33.333333333333336  C 22.75173611111111 33.333333333333336  22.942708333333336 33.25086805555556  23.098958333333336 33.0859375  Z " stroke-width="2" stroke="#000000" fill="none" transform="matrix(1 0 0 1 30 42 )" mask="url(#clip22)" />
    <path d="M 23.0078125 23.97135416666667  C 23.172743055555557 23.84114583333333  23.26388888888889 23.689236111111107  23.28125 23.515625  L 23.75 7.34375  C 23.750000000000004 7.135416666666665  23.663194444444446 6.979166666666665  23.489583333333336 6.875  C 23.31597222222222 6.736111111111107  23.10763888888889 6.666666666666665  22.864583333333336 6.666666666666665  L 17.135416666666668 6.666666666666665  C 16.892361111111114 6.666666666666665  16.68402777777778 6.736111111111107  16.510416666666668 6.875  C 16.336805555555557 6.979166666666665  16.25 7.135416666666665  16.25 7.34375  L 16.692708333333332 23.515625  C 16.692708333333332 23.689236111111107  16.77951388888889 23.84114583333333  16.953125 23.97135416666667  C 17.126736111111114 24.1015625  17.335069444444446 24.16666666666667  17.578125 24.16666666666667  L 22.395833333333336 24.16666666666667  C 22.63888888888889 24.16666666666667  22.842881944444446 24.1015625  23.0078125 23.97135416666667  Z " stroke-width="2" stroke="#000000" fill="none" transform="matrix(1 0 0 1 30 42 )" mask="url(#clip22)" />
  </g>
</svg>