<?xml version="1.0" encoding="utf-8"?>
<svg version="1.1" xmlns:xlink="http://www.w3.org/1999/xlink" width="64px" height="54px" xmlns="http://www.w3.org/2000/svg">
  <g transform="matrix(1 0 0 1 -80 -55 )">
    <path d="M 54.800495662949196 30.851130163678874  C 54.82693102023957 30.907248636009353  54.84014869888476 30.991426344505065  54 31.10366328916602  L 54 51.30631332813718  C 54.84014869888476 52.03585346843335  54.58901280462619 52.66718628215121  54.086741016109045 53.20031176929072  C 53.58446922759191 53.73343725643024  52.989673688558455 54  52.30235439900867 54  L 37 54  L 37 37  L 27 37  L 27 54  L 11.697645600991326 54  C 11.010326311441554 54  10.415530772408097 53.73343725643024  9.913258983890954 53.20031176929072  C 9.410987195373814 52.66718628215121  9.159851301115241 52.03585346843335  10 51.30631332813718  L 10 31.10366328916602  C 9.159851301115241 31.075604053000777  9.166460140437836 31.033515198752923  9.179677819083023 30.977396726422448  C 9.192895497728212 30.921278254091973  9.199504337050806 30.879189399844115  9.199504337050806 30.851130163678874  L 32 10.901013250194856  L 54.800495662949196 30.851130163678874  Z M 63.960346964064435 27.210444271239286  C 63.986782321354816 27.58924395946999  63.8942585708385 27.918939984411534  63.682775712515486 28.199532346063915  L 61.22428748451053 31.314107560405304  C 61.01280462618753 31.566640685892445  60.73523337463858 31.72096648480125  60.391573729863694 31.777084957131724  L 60.272614622057 31.777084957131724  C 59.92895497728212 31.777084957131724  59.651383725733176 31.678877630553387  59.43990086741016 31.48246297739672  L 32 7.197194076383477  L 4.560099132589839 31.48246297739672  C 4.242874845105328 31.70693686671862  3.925650557620818 31.805144193296957  3.6084262701363072 31.777084957131724  C 3.264766625361421 31.72096648480125  2.9871953738124746 31.566640685892445  2.775712515489467 31.314107560405304  L 0.31722428748451054 28.199532346063915  C 0.10574142916150356 27.918939984411534  0.013217678645188033 27.58924395946999  0.03965303593556382 27.210444271239286  C 0.06608839322593989 26.831644583008575  0.21148285832300712 26.530007794232265  0.4758364312267658 26.305533904910366  L 28.98636926889715 1.0943102104442728  C 29.83230070218918 0.36477007014808494  30.836844279223463 0  32 0  C 33.163155720776544 0  34.16769929781083 0.36477007014808494  35.01363073110285 1.0943102104442728  L 44.68897149938042 9.680436477007012  L 44.68897149938042 1.473109898674978  C 44.68897149938042 1.0802805923616465  44.80793060718711 0.7575993764614164  45.045848822800494 0.5050662509742816  C 45.28376703841388 0.2525331254871408  45.5877736472532 0.1262665627435704  45.95786864931846 0.1262665627435704  L 53.57125154894672 0.1262665627435704  C 53.94134655101198 0.1262665627435704  54.2453531598513 0.2525331254871408  54.48327137546468 0.5050662509742816  C 54.721189591078065 0.7575993764614164  54.84014869888476 1.0802805923616465  54 1.473109898674978  L 54 18.645362431800468  L 63.52416356877323 26.305533904910366  C 63.788517141677 26.530007794232265  63.93391160677407 26.831644583008575  63.960346964064435 27.210444271239286  Z " fill-rule="nonzero" fill="#000000" stroke="none" transform="matrix(1 0 0 1 80 55 )" />
  </g>
</svg>