<?xml version="1.0" encoding="utf-8"?>
<svg version="1.1" xmlns:xlink="http://www.w3.org/1999/xlink" width="45px" height="33px" xmlns="http://www.w3.org/2000/svg">
  <g transform="matrix(1 0 0 1 -294 -457 )">
    <path d="M 29.77734375 17.77734375  C 29.925781250000004 17.62890625  30 17.453124999999996  30 17.25  C 30 17.03125  29.929687500000004 16.851562500000004  29.7890625 16.7109375  L 21.5390625 8.460937499999998  C 21.3984375 8.320312499999998  21.218750000000004 8.25  21 8.25  C 20.78125 8.25  20.601562500000004 8.320312499999998  20.4609375 8.460937499999998  L 12.234374999999998 16.687499999999996  C 12.078125000000002 16.875  12 17.0625  12 17.25  C 12 17.46875  12.0703125 17.6484375  12.2109375 17.7890625  C 12.3515625 17.9296875  12.531250000000004 18  12.75 18  L 18 18  L 18 26.25  C 18 26.453124999999996  18.07421875 26.62890625  18.22265625 26.77734375  C 18.37109375 26.92578125  18.546875 26.999999999999996  18.75 26.999999999999996  L 23.250000000000004 26.999999999999996  C 23.453125000000004 26.999999999999996  23.628906250000004 26.92578125  23.777343750000004 26.77734375  C 23.92578125 26.62890625  24 26.453124999999996  24 26.25  L 24 18  L 29.25 18  C 29.453125000000004 18  29.628906250000004 17.92578125  29.77734375 17.77734375  Z M 43.04296875 18.41015625  C 44.34765625000001 20.04296875  45.00000000000001 21.906249999999996  45 24  C 45.00000000000001 26.484374999999996  44.12109375000001 28.60546875  42.36328125 30.363281250000004  C 40.60546875000001 32.12109375  38.48437500000001 33  36 33  L 10.5 33  C 7.609374999999999 33  5.136718750000001 31.97265625  3.0820312500000004 29.91796875  C 1.02734375 27.863281249999996  0 25.390625000000004  0 22.500000000000004  C 0 20.468749999999996  0.546875 18.59375  1.640625 16.875  C 2.734375 15.156249999999995  4.203125 13.867187499999995  6.046875 13.0078125  C 6.015625 12.539062500000002  6 12.203124999999998  6 12  C 6 8.687499999999998  7.171874999999999 5.859375000000002  9.515625 3.515625000000001  C 11.859375 1.1718750000000004  14.687500000000004 0  18 0  C 20.437500000000004 0  22.667968750000004 0.679687500000001  24.69140625 2.039062499999999  C 26.714843750000004 3.3984375000000013  28.1875 5.203125000000002  29.109375 7.453124999999999  C 30.218750000000004 6.484374999999997  31.515625 5.999999999999998  33 5.999999999999998  C 34.65625 5.999999999999998  36.0703125 6.5859375  37.2421875 7.757812500000001  C 38.4140625 8.929687500000002  39 10.343749999999996  39 12  C 39 13.187499999999998  38.6796875 14.265624999999998  38.0390625 15.234375  C 40.07031250000001 15.71875  41.73828125 16.777343749999996  43.04296875 18.41015625  Z " fill-rule="nonzero" fill="#000000" stroke="none" transform="matrix(1 0 0 1 294 457 )" />
  </g>
</svg>