<?xml version="1.0" encoding="utf-8"?>
<svg version="1.1" xmlns:xlink="http://www.w3.org/1999/xlink" width="26px" height="26px" xmlns="http://www.w3.org/2000/svg">
  <g transform="matrix(1 0 0 1 -414 -46 )">
    <path d="M 10.833333333333334 20.143229166666668  C 11.12673611111111 20.143229166666668  11.38064236111111 20.036024305555557  11.595052083333334 19.821614583333332  L 21.98828125 9.428385416666668  C 22.20269097222222 9.213975694444443  22.309895833333332 8.960069444444443  22.309895833333332 8.666666666666668  C 22.309895833333332 8.373263888888888  22.20269097222222 8.119357638888888  21.98828125 7.904947916666668  L 20.26171875 6.178385416666668  C 20.04730902777778 5.963975694444442  19.79340277777778 5.856770833333332  19.5 5.856770833333332  C 19.20659722222222 5.856770833333332  18.95269097222222 5.963975694444442  18.73828125 6.178385416666668  L 10.833333333333334 14.083333333333336  L 7.26171875 10.51171875  C 7.047309027777779 10.297309027777777  6.793402777777779 10.190104166666668  6.5 10.190104166666668  C 6.206597222222222 10.190104166666668  5.952690972222222 10.297309027777777  5.73828125 10.51171875  L 4.01171875 12.23828125  C 3.797309027777778 12.452690972222223  3.690104166666667 12.706597222222223  3.690104166666667 13  C 3.690104166666667 13.293402777777775  3.797309027777778 13.547309027777775  4.01171875 13.76171875  L 10.071614583333334 19.821614583333332  C 10.286024305555557 20.036024305555557  10.539930555555557 20.143229166666668  10.833333333333334 20.143229166666668  Z M 24.569661458333332 1.4303385416666676  C 25.52322048611111 2.383897569444442  26 3.532118055555552  26 4.875  L 26 21.125  C 26 22.467881944444443  25.52322048611111 23.616102430555557  24.569661458333332 24.569661458333332  C 23.616102430555557 25.52322048611111  22.467881944444446 26  21.125 26  L 4.875 26  C 3.532118055555556 26  2.3838975694444446 25.52322048611111  1.4303385416666667 24.569661458333332  C 0.47677951388888884 23.616102430555557  0 22.467881944444443  0 21.125  L 0 4.875  C 0 3.532118055555552  0.47677951388888884 2.383897569444442  1.4303385416666667 1.4303385416666676  C 2.3838975694444446 0.4767795138888873  3.532118055555556 0  4.875 0  L 21.125 0  C 22.467881944444446 0  23.616102430555557 0.4767795138888873  24.569661458333332 1.4303385416666676  Z " fill-rule="nonzero" fill="#63a103" stroke="none" transform="matrix(1 0 0 1 414 46 )" />
  </g>
</svg>