<?xml version="1.0" encoding="utf-8"?>
<svg version="1.1" xmlns:xlink="http://www.w3.org/1999/xlink" width="21px" height="16px" xmlns="http://www.w3.org/2000/svg">
  <g transform="matrix(1 0 0 1 -275 -486 )">
    <path d="M 20.620645161290323 2.2087542087542094  C 20.873548387096776 2.460157126823793  21.000000000000004 2.765432098765432  21 3.1245791245791246  C 21.000000000000004 3.4837261503928154  20.873548387096776 3.7890011223344544  20.620645161290323 4.04040404040404  L 10.811612903225807 13.79124579124579  L 8.969032258064516 15.622895622895623  C 8.716129032258065 15.874298540965208  8.409032258064517 16  8.047741935483872 16  C 7.686451612903226 16  7.379354838709678 15.874298540965208  7.126451612903226 15.622895622895623  L 5.283870967741935 13.79124579124579  L 0.37935483870967746 8.915824915824917  C 0.12645161290322593 8.66442199775533  0 8.35914702581369  0 8  C 0 7.640852974186307  0.12645161290322593 7.335578002244668  0.37935483870967746 7.084175084175085  L 2.2219354838709675 5.252525252525253  C 2.4748387096774196 5.001122334455667  2.7819354838709685 4.875420875420874  3.143225806451613 4.875420875420875  C 3.504516129032259 4.875420875420874  3.811612903225807 5.001122334455667  4.064516129032258 5.252525252525253  L 8.047741935483872 9.225589225589225  L 16.93548387096774 0.37710437710437716  C 17.188387096774196 0.1257014590347918  17.495483870967746 0  17.856774193548386 0  C 18.218064516129033 0  18.525161290322583 0.1257014590347918  18.77806451612903 0.37710437710437716  L 20.620645161290323 2.2087542087542094  Z " fill-rule="nonzero" fill="#22a417" stroke="none" transform="matrix(1 0 0 1 275 486 )" />
  </g>
</svg>