<?xml version="1.0" encoding="utf-8"?>
<svg version="1.1" xmlns:xlink="http://www.w3.org/1999/xlink" width="70px" height="82px" xmlns="http://www.w3.org/2000/svg">
  <g transform="matrix(1 0 0 1 -1263 -19 )">
    <path d="M 52.682291666666664 3.1116071428571455  L 66.90104166666666 17.388392857142854  C 67.75173611111111 18.24255952380952  68.48090277777779 19.40178571428572  69.08854166666666 20.866071428571427  C 69.69618055555556 22.330357142857146  70 23.672619047619044  70 24.892857142857146  L 70 77.60714285714286  C 70 78.82738095238095  69.57465277777777 79.86458333333333  68.72395833333334 80.71875  C 67.8732638888889 81.57291666666667  66.84027777777779 82  65.625 82  L 4.375 82  C 3.1597222222222228 82  2.126736111111111 81.57291666666667  1.2760416666666667 80.71875  C 0.42534722222222215 79.86458333333333  0 78.82738095238095  0 77.60714285714286  L 0 4.392857142857146  C 0 3.1726190476190457  0.42534722222222215 2.1354166666666634  1.2760416666666667 1.28125  C 2.126736111111111 0.42708333333333637  3.1597222222222228 0  4.375 0  L 45.208333333333336 0  C 46.423611111111114 0  47.760416666666664 0.3050595238095273  49.21875 0.9151785714285727  C 50.677083333333336 1.5252976190476182  51.83159722222223 2.2574404761904727  52.682291666666664 3.1116071428571455  Z M 48.53515625 7.229910714285718  C 48.170572916666664 6.863839285714282  47.547743055555564 6.5282738095237995  46 6.223214285714282  L 46 24  L 63.802083333333336 24  C 63.4982638888889 22.5438988095238  63.1640625 21.91852678571428  62.799479166666664 21.552455357142854  L 48.53515625 7.229910714285718  Z M 6 76  L 64 76  L 64 30  L 45.208333333333336 30  C 43.99305555555556 29.28571428571428  42.96006944444444 28.858630952380945  42.109375 28.00446428571428  C 41.25868055555556 27.150297619047617  40.833333333333336 26.113095238095227  40 24.892857142857146  L 40 6  L 6 6  L 6 76  Z M 43.75 41  L 58 55.642857142857146  L 58 70  L 11.666666666666666 70  L 11.666666666666666 61.5  L 20.416666666666668 52.71428571428571  L 26.25 58.57142857142857  L 43.75 41  Z M 26.614583333333332 44.294642857142854  C 24.91319444444445 46.00297619047618  22.84722222222222 46.857142857142854  20.416666666666668 46.857142857142854  C 17.986111111111114 46.857142857142854  15.920138888888891 46.00297619047618  14.21875 44.294642857142854  C 12.51736111111111 42.586309523809526  11.666666666666666 40.51190476190475  11.666666666666666 38.07142857142857  C 11.666666666666666 35.63095238095238  12.51736111111111 33.55654761904762  14.21875 31.84821428571428  C 15.920138888888891 30.139880952380945  17.986111111111114 29.28571428571428  20.416666666666668 29.28571428571428  C 22.84722222222222 29.28571428571428  24.91319444444445 30.139880952380945  26.614583333333332 31.84821428571428  C 28.31597222222222 33.55654761904762  29.166666666666668 35.63095238095238  29.166666666666668 38.07142857142857  C 29.166666666666668 40.51190476190475  28.31597222222222 42.586309523809526  26.614583333333332 44.294642857142854  Z " fill-rule="nonzero" fill="#000000" stroke="none" transform="matrix(1 0 0 1 1263 19 )" />
  </g>
</svg>