<?xml version="1.0" encoding="utf-8"?>
<svg version="1.1" xmlns:xlink="http://www.w3.org/1999/xlink" width="57px" height="12px" xmlns="http://www.w3.org/2000/svg">
  <g transform="matrix(1 0 0 1 -283 -171 )">
    <path d="M 56.670138888888886 5.602080624187256  C 56.890046296296305 5.7061118335500645  57.000000000000014 5.825747724317294  57 5.960988296488947  C 57.000000000000014 6.106631989596878  56.890046296296305 6.231469440832248  56.670138888888886 6.335500650195058  L 44.00347222222222 11.859557867360207  C 43.651620370370374 12.005201560468137  43.266782407407405 12.036410923276982  42.848958333333336 11.953185955786736  C 42.43113425925927 11.859557867360207  42.22222222222222 11.708712613784133  42.22222222222222 11.500650195058519  L 42.22222222222222 8  L 1.0555555555555556 8  C 0.7476851851851852 8.00520156046814  0.4947916666666667 7.958387516254877  0.296875 7.864759427828348  C 0.09895833333333333 7.771131339401821  0 7.651495448634589  0 7.505851755526657  L 0 4.509752925877763  C 0 4.364109232769831  0.09895833333333333 4.244473342002601  0.296875 4.1508452535760725  C 0.4947916666666667 4.057217165149545  0.7476851851851852 4.010403120936281  1.0555555555555556 4  L 42.22222222222222 4  L 42.22222222222222 0.5149544863459043  C 42.22222222222222 0.2964889466840055  42.43113425925927 0.14564369310793168  42.848958333333336 0.06241872561768558  C 43.266782407407405 -0.02080624187256319  43.651620370370374 0.005201560468139466  44.00347222222222 0.14044213263979222  L 56.670138888888886 5.602080624187256  Z " fill-rule="nonzero" fill="#000000" stroke="none" transform="matrix(1 0 0 1 283 171 )" />
  </g>
</svg>