<?xml version="1.0" encoding="utf-8"?>
<svg version="1.1" xmlns:xlink="http://www.w3.org/1999/xlink" width="48px" height="51px" xmlns="http://www.w3.org/2000/svg">
  <g transform="matrix(1 0 0 1 -91 -85 )">
    <path d="M 46.94021739130435 20.44255455712452  C 47.646739130434774 21.260911424903725  48 22.248395378690628  48 23.405006418485236  L 48 27.594993581514764  C 48 28.75160462130937  47.646739130434774 29.739088575096275  46.94021739130435 30.55744544287548  C 46.23369565217392 31.375802310654684  45.31521739130435 31.784980744544292  44.18478260869565 31  L 21.22826086956522 31  L 30.782608695652172 41.40885750962773  C 31.608695652173918 42.19448010269576  32.02173913043478 43.17650834403081  32.02173913043478 44.35494223363286  C 32.02173913043478 45.533376123234916  31.608695652173918 46.51540436456996  30.782608695652172 47.301026957638  L 28.33695652173913 49.78883183568678  C 27.532608695652176 50.59627727856226  26.554347826086953 51  25.402173913043477 51  C 24.27173913043478 51  23.282608695652176 50.59627727856226  22.434782608695652 49.78883183568678  L 1.2065217391304348 28.446084724005136  C 0.40217391304347855 27.638639281129652  0 26.656611039794605  0 25.5  C 0 24.365211810012838  0.40217391304347855 23.37227214377407  1.2065217391304348 22.521181001283697  L 22.434782608695652 1.2439024390243913  C 23.260869565217394 0.41463414634146  24.25 0  25.402173913043477 0  C 26.532608695652172 0  27.510869565217394 0.41463414634146  28.33695652173913 1.2439024390243913  L 30.782608695652172 3.666238767650834  C 31.608695652173918 4.495507060333759  32.02173913043478 5.488446726572522  32.02173913043478 6.645057766367137  C 32.02173913043478 7.801668806161741  31.608695652173918 8.79460847240051  30.782608695652172 9.623876765083441  L 21.22826086956522 20  L 44.18478260869565 20  C 45.31521739130435 19.215019255455715  46.23369565217392 19.624197689345316  46.94021739130435 20.44255455712452  Z " fill-rule="nonzero" fill="#000000" stroke="none" transform="matrix(1 0 0 1 91 85 )" />
  </g>
</svg>