<?xml version="1.0" encoding="utf-8"?>
<svg version="1.1" xmlns:xlink="http://www.w3.org/1999/xlink" width="25px" height="25px" xmlns="http://www.w3.org/2000/svg">
  <defs>
    <mask fill="white" id="clip4">
      <path d="M 24.41077441077444 18.686868686868685  C 24.803591470258084 19.07968574635241  25 19.55667789001122  25 20.117845117845118  C 25 20.679012345679016  24.803591470258084 21.15600448933782  24.41077441077444 21.548821548821547  L 21.548821548821593 24.410774410774412  C 21.15600448933776 24.803591470258137  20.679012345678984 25  20.117845117845075 25  C 19.556677890011162 25  19.079685746352386 24.803591470258137  18.686868686868742 24.410774410774412  L 12.5 18.223905723905727  L 6.313131313131255 24.410774410774412  C 5.920314253647613 24.803591470258137  5.443322109988837 25  4.882154882154926 25  C 4.320987654321016 25  3.8439955106622388 24.803591470258137  3.451178451178407 24.410774410774412  L 0.5892255892255586 21.548821548821547  C 0.19640852974191605 21.15600448933782  0 20.679012345679016  0 20.117845117845118  C 0 19.55667789001122  0.19640852974191605 19.07968574635241  0.5892255892255586 18.686868686868685  L 3.6747436092485946 15.601350666845711  L 6.7760942760943035 12.5  L 0.5892255892255586 6.313131313131312  C 0.19640852974191605 5.920314253647584  0 5.4433221099887765  0 4.882154882154882  C 0 4.320987654320987  0.19640852974191605 3.8439955106621735  0.5892255892255586 3.451178451178452  L 3.451178451178407 0.5892255892255893  C 3.8439955106622388 0.1964085297418621  4.320987654321016 0  4.882154882154926 0  C 5.443322109988837 0  5.920314253647613 0.1964085297418621  6.313131313131255 0.5892255892255893  L 12.5 6.776094276094277  L 18.686868686868742 0.5892255892255893  C 19.079685746352386 0.1964085297418621  19.556677890011162 0  20.117845117845075 0  C 20.679012345678984 0  21.15600448933776 0.1964085297418621  21.548821548821593 0.5892255892255893  L 24.41077441077444 3.451178451178452  C 24.803591470258084 3.8439955106621735  25 4.320987654320987  25 4.882154882154882  C 25 5.4433221099887765  24.803591470258084 5.920314253647584  24.41077441077444 6.313131313131312  L 18.2239057239057 12.5  L 24.41077441077444 18.686868686868685  Z " fill-rule="evenodd" />
    </mask>
  </defs>
  <g transform="matrix(1 0 0 1 -1107 -2 )">
    <path d="M 24.41077441077444 18.686868686868685  C 24.803591470258084 19.07968574635241  25 19.55667789001122  25 20.117845117845118  C 25 20.679012345679016  24.803591470258084 21.15600448933782  24.41077441077444 21.548821548821547  L 21.548821548821593 24.410774410774412  C 21.15600448933776 24.803591470258137  20.679012345678984 25  20.117845117845075 25  C 19.556677890011162 25  19.079685746352386 24.803591470258137  18.686868686868742 24.410774410774412  L 12.5 18.223905723905727  L 6.313131313131255 24.410774410774412  C 5.920314253647613 24.803591470258137  5.443322109988837 25  4.882154882154926 25  C 4.320987654321016 25  3.8439955106622388 24.803591470258137  3.451178451178407 24.410774410774412  L 0.5892255892255586 21.548821548821547  C 0.19640852974191605 21.15600448933782  0 20.679012345679016  0 20.117845117845118  C 0 19.55667789001122  0.19640852974191605 19.07968574635241  0.5892255892255586 18.686868686868685  L 3.6747436092485946 15.601350666845711  L 6.7760942760943035 12.5  L 0.5892255892255586 6.313131313131312  C 0.19640852974191605 5.920314253647584  0 5.4433221099887765  0 4.882154882154882  C 0 4.320987654320987  0.19640852974191605 3.8439955106621735  0.5892255892255586 3.451178451178452  L 3.451178451178407 0.5892255892255893  C 3.8439955106622388 0.1964085297418621  4.320987654321016 0  4.882154882154926 0  C 5.443322109988837 0  5.920314253647613 0.1964085297418621  6.313131313131255 0.5892255892255893  L 12.5 6.776094276094277  L 18.686868686868742 0.5892255892255893  C 19.079685746352386 0.1964085297418621  19.556677890011162 0  20.117845117845075 0  C 20.679012345678984 0  21.15600448933776 0.1964085297418621  21.548821548821593 0.5892255892255893  L 24.41077441077444 3.451178451178452  C 24.803591470258084 3.8439955106621735  25 4.320987654320987  25 4.882154882154882  C 25 5.4433221099887765  24.803591470258084 5.920314253647584  24.41077441077444 6.313131313131312  L 18.2239057239057 12.5  L 24.41077441077444 18.686868686868685  Z " fill-rule="nonzero" fill="#cc0303" stroke="none" transform="matrix(1 0 0 1 1107 2 )" />
    <path d="M 24.41077441077444 18.686868686868685  C 24.803591470258084 19.07968574635241  25 19.55667789001122  25 20.117845117845118  C 25 20.679012345679016  24.803591470258084 21.15600448933782  24.41077441077444 21.548821548821547  L 21.548821548821593 24.410774410774412  C 21.15600448933776 24.803591470258137  20.679012345678984 25  20.117845117845075 25  C 19.556677890011162 25  19.079685746352386 24.803591470258137  18.686868686868742 24.410774410774412  L 12.5 18.223905723905727  L 6.313131313131255 24.410774410774412  C 5.920314253647613 24.803591470258137  5.443322109988837 25  4.882154882154926 25  C 4.320987654321016 25  3.8439955106622388 24.803591470258137  3.451178451178407 24.410774410774412  L 0.5892255892255586 21.548821548821547  C 0.19640852974191605 21.15600448933782  0 20.679012345679016  0 20.117845117845118  C 0 19.55667789001122  0.19640852974191605 19.07968574635241  0.5892255892255586 18.686868686868685  L 3.6747436092485946 15.601350666845711  L 6.7760942760943035 12.5  L 0.5892255892255586 6.313131313131312  C 0.19640852974191605 5.920314253647584  0 5.4433221099887765  0 4.882154882154882  C 0 4.320987654320987  0.19640852974191605 3.8439955106621735  0.5892255892255586 3.451178451178452  L 3.451178451178407 0.5892255892255893  C 3.8439955106622388 0.1964085297418621  4.320987654321016 0  4.882154882154926 0  C 5.443322109988837 0  5.920314253647613 0.1964085297418621  6.313131313131255 0.5892255892255893  L 12.5 6.776094276094277  L 18.686868686868742 0.5892255892255893  C 19.079685746352386 0.1964085297418621  19.556677890011162 0  20.117845117845075 0  C 20.679012345678984 0  21.15600448933776 0.1964085297418621  21.548821548821593 0.5892255892255893  L 24.41077441077444 3.451178451178452  C 24.803591470258084 3.8439955106621735  25 4.320987654320987  25 4.882154882154882  C 25 5.4433221099887765  24.803591470258084 5.920314253647584  24.41077441077444 6.313131313131312  L 18.2239057239057 12.5  L 24.41077441077444 18.686868686868685  Z " stroke-width="2" stroke="#000000" fill="none" transform="matrix(1 0 0 1 1107 2 )" mask="url(#clip4)" />
  </g>
</svg>