<?xml version="1.0" encoding="utf-8"?>
<svg version="1.1" xmlns:xlink="http://www.w3.org/1999/xlink" width="23px" height="21px" xmlns="http://www.w3.org/2000/svg">
  <g transform="matrix(1 0 0 1 -1182 -245 )">
    <path d="M 5.75 14  L 5.75 19  L 17.25 19  L 17.25 14  L 5.75 14  Z M 19.166666666666668 13.562499999999998  L 19.166666666666668 19.25  L 21 19.25  L 21 7.000000000000001  C 21.083333333333332 6.87239583333333  21.03342013888889 6.696940104166666  20.93359375 6.473632812499999  C 20.833767361111114 6.250325520833332  20.733940972222225 6.09309895833333  20.634114583333332 6.001953124999999  L 16.426432291666668 2.160156250000001  C 16.326605902777782 2.0690104166666647  16.156901041666668 1.9778645833333313  15.917317708333332 1.88671875  C 15.677734375 1.7955729166666665  15.483072916666668 1.7500000000000009  15.333333333333332 1.7500000000000009  L 15.333333333333332 7.437499999999999  C 15.333333333333332 7.802083333333334  15.19357638888889 8.111979166666666  14.9140625 8.3671875  C 14.63454861111111 8.622395833333334  14.29513888888889 8.75  13.895833333333332 8.75  L 5.270833333333333 8.75  C 4.871527777777779 8.75  4.532118055555556 8.622395833333334  4.252604166666667 8.3671875  C 3.9730902777777786 8.111979166666666  3.833333333333333 7.802083333333334  3.833333333333333 7.437499999999999  L 3.833333333333333 1.7500000000000009  L 2 1.7500000000000009  L 2 19.25  L 3.833333333333333 19.25  L 3.833333333333333 13.562499999999998  C 3.833333333333333 13.197916666666664  3.9730902777777786 12.888020833333332  4.252604166666667 12.6328125  C 4.532118055555556 12.377604166666664  4.871527777777779 12.249999999999998  5.270833333333333 12  L 17.729166666666668 12  C 18.128472222222225 12.249999999999998  18.467881944444446 12.377604166666664  18.747395833333332 12.6328125  C 19.026909722222225 12.888020833333332  19.166666666666668 13.197916666666664  19.166666666666668 13.562499999999998  Z M 13.2744140625 6.8701171875  C 13.369249131944446 6.783528645833332  13.416666666666668 6.680989583333332  13.416666666666668 6.5625  L 13.416666666666668 2.187499999999999  C 13.416666666666668 2.0690104166666647  13.369249131944446 1.9664713541666647  13.2744140625 1.8798828124999991  C 13.179578993055557 1.7932942708333313  13.067274305555557 1.7500000000000009  12.9375 1.7500000000000009  L 10.0625 1.7500000000000009  C 9.932725694444445 1.7500000000000009  9.820421006944445 1.7932942708333313  9.7255859375 1.8798828124999991  C 9.630750868055557 1.9664713541666647  9.583333333333334 2.0690104166666647  9.583333333333334 2.187499999999999  L 9.583333333333334 6.5625  C 9.583333333333334 6.680989583333332  9.630750868055557 6.783528645833332  9.7255859375 6.8701171875  C 9.820421006944445 6.956705729166666  9.932725694444445 7.000000000000001  10.0625 7.000000000000001  L 12.9375 7.000000000000001  C 13.067274305555557 7.000000000000001  13.179578993055557 6.956705729166666  13.2744140625 6.8701171875  Z M 22.700520833333332 5.796874999999999  C 22.90017361111111 6.234375  23 6.635416666666666  23 7.000000000000001  L 23 19.6875  C 23 20.052083333333336  22.860243055555554 20.361979166666664  22.580729166666668 20.6171875  C 22.301215277777782 20.872395833333336  21.961805555555557 21  21.5625 21  L 1.4375 21  C 1.0381944444444446 21  0.6987847222222223 20.872395833333336  0.41927083333333337 20.6171875  C 0.13975694444444442 20.361979166666664  0 20.052083333333336  0 19.6875  L 0 1.3125  C 0 0.9479166666666656  0.13975694444444442 0.6380208333333305  0.41927083333333337 0.3828124999999992  C 0.6987847222222223 0.12760416666666563  1.0381944444444446 0  1.4375 0  L 15.333333333333332 0  C 15.73263888888889 0  16.171875 0.09114583333333126  16.651041666666668 0.2734375000000008  C 17.130208333333332 0.45572916666666563  17.509548611111114 0.6744791666666649  17.7890625 0.9296875000000008  L 21.981770833333332 4.7578125  C 22.261284722222225 5.013020833333331  22.500868055555557 5.359375000000001  22.700520833333332 5.796874999999999  Z " fill-rule="nonzero" fill="#000000" stroke="none" transform="matrix(1 0 0 1 1182 245 )" />
  </g>
</svg>