<?xml version="1.0" encoding="utf-8"?>
<svg version="1.1" xmlns:xlink="http://www.w3.org/1999/xlink" width="27px" height="23px" xmlns="http://www.w3.org/2000/svg">
  <g transform="matrix(1 0 0 1 -1224 -244 )">
    <path d="M 6.230769230769231 17  L 6.230769230769231 21  L 20.76923076923077 21  L 20.76923076923077 17  L 6.230769230769231 17  Z M 6.230769230769231 2  L 6.230769230769231 11.5  L 20.76923076923077 11.5  L 20.76923076923077 5.75  L 18.173076923076923 5.75  C 17.740384615384617 5.75  17.372596153846153 5.6102430555555545  17.069711538461537 5.330729166666668  C 16.766826923076927 5.051215277777776  16.615384615384617 4.7118055555555545  16.615384615384617 4.3125  L 16.615384615384617 2  L 6.230769230769231 2  Z M 24.614783653846153 13.132161458333336  C 24.820312499999996 12.942491319444443  24.923076923076923 12.717881944444443  24.923076923076923 12.458333333333336  C 24.923076923076923 12.198784722222221  24.820312499999996 11.974175347222221  24.614783653846153 11.784505208333336  C 24.40925480769231 11.594835069444443  24.165865384615387 11.5  23.884615384615383 11.5  C 23.603365384615383 11.5  23.359975961538463 11.594835069444443  23.154447115384617 11.784505208333336  C 22.948918269230774 11.974175347222221  22.846153846153847 12.198784722222221  22.846153846153847 12.458333333333336  C 22.846153846153847 12.717881944444443  22.948918269230774 12.942491319444443  23.154447115384617 13.132161458333336  C 23.359975961538463 13.321831597222221  23.603365384615383 13.416666666666664  23.884615384615383 13.416666666666664  C 24.165865384615387 13.416666666666664  24.40925480769231 13.321831597222221  24.614783653846153 13.132161458333336  Z M 26.083233173076923 10.429361979166668  C 26.69441105769231 10.99338107638889  27 11.669704861111109  27 12.458333333333336  L 27 18.6875  C 27 18.817274305555557  26.94861778846154 18.929578993055557  26.845853365384617 19.0244140625  C 26.743088942307693 19.119249131944443  26.62139423076923 19.166666666666668  26.48076923076923 19.166666666666668  L 22.846153846153847 19.166666666666668  L 22.846153846153847 21.5625  C 22.846153846153847 21.961805555555557  22.69471153846154 22.301215277777775  22.391826923076923 22.580729166666668  C 22.08894230769231 22.860243055555557  21.721153846153847 23  21.288461538461537 23  L 5.711538461538462 23  C 5.278846153846154 23  4.9110576923076925 22.860243055555557  4.608173076923077 22.580729166666668  C 4.305288461538462 22.301215277777775  4.153846153846154 21.961805555555557  4.153846153846154 21.5625  L 4.153846153846154 19.166666666666668  L 0.5192307692307693 19.166666666666668  C 0.3786057692307693 19.166666666666668  0.2569110576923077 19.119249131944443  0.1541466346153846 19.0244140625  C 0.051382211538461536 18.929578993055557  0 18.817274305555557  0 18.6875  L 0 12.458333333333336  C 0 11.669704861111109  0.3055889423076923 10.99338107638889  0.9167668269230769 10.429361979166668  C 1.5279447115384615 9.865342881944446  2.260817307692308 9.583333333333332  3.1153846153846154 9.583333333333332  L 4.153846153846154 9.583333333333332  L 4.153846153846154 1.4375  C 4.153846153846154 1.0381944444444433  4.305288461538462 0.6987847222222191  4.608173076923077 0.4192708333333325  C 4.9110576923076925 0.1397569444444433  5.278846153846154 0  5.711538461538462 0  L 16.615384615384617 0  C 17.048076923076927 0  17.524038461538463 0.09982638888888662  18.04326923076923 0.2994791666666675  C 18.5625 0.4991319444444433  18.973557692307693 0.7387152777777758  19.276442307692307 1.0182291666666674  L 21.742788461538463 3.2942708333333326  C 22.04567307692308 3.573784722222219  22.305288461538463 3.953125  22.521634615384617 4.432291666666668  C 22.737980769230774 4.911458333333332  22.846153846153847 5.350694444444443  22.846153846153847 5.75  L 22.846153846153847 9.583333333333332  L 23.884615384615383 9.583333333333332  C 24.739182692307697 9.583333333333332  25.47205528846154 9.865342881944446  26.083233173076923 10.429361979166668  Z " fill-rule="nonzero" fill="#000000" stroke="none" transform="matrix(1 0 0 1 1224 244 )" />
  </g>
</svg>