<?xml version="1.0" encoding="utf-8"?>
<svg version="1.1" xmlns:xlink="http://www.w3.org/1999/xlink" width="40px" height="30px" xmlns="http://www.w3.org/2000/svg">
  <g transform="matrix(1 0 0 1 -687 -919 )">
    <path d="M 38.994565217391305 13.267008985879333  C 39.664855072463766 13.71630295250321  40 14.293966623876763  40 15  C 40 15.69319640564827  39.664855072463766 16.277278562259305  38.994565217391305 16.75224646983312  L 21.304347826086957 29.28754813863928  C 20.597826086956523 29.762516046213094  19.773550724637683 30  18.831521739130434 30  C 17.907608695652172 30  17.092391304347828 29.762516046213094  16.38586956521739 29.28754813863928  L 14.347826086956522 27.84338896020539  C 13.659420289855074 27.35558408215661  13.315217391304348 26.771501925545568  13.315217391304348 26.09114249037227  C 13.315217391304348 25.410783055198976  13.659420289855074 24.826700898587934  14.347826086956522 24.338896020539153  L 22.309782608695656 18.69704749679076  L 3.179347826086957 18.69704749679076  C 2.2373188405797104 18.69704749679076  1.4719202898550727 18.456354300385108  0.8831521739130435 17.974967907573813  C 0.29438405797101447 17.493581514762514  0 16.912708600770216  0 16.23234916559692  L 0 13.76765083440308  C 0 13.08729139922978  0.29438405797101447 12.506418485237486  0.8831521739130435 12.025032092426187  C 1.4719202898550727 11.54364569961489  2.2373188405797104 11.302952503209244  3.179347826086957 11.302952503209244  L 22.309782608695656 11.302952503209244  L 14.347826086956522 5.641848523748396  C 13.659420289855074 5.17971758664955  13.315217391304348 4.602053915275997  13.315217391304348 3.908857509627728  C 13.315217391304348 3.2156611039794623  13.659420289855074 2.6379974326059052  14.347826086956522 2.1758664955070595  L 16.38586956521739 0.7317073170731714  C 17.074275362318843 0.24390243902438824  17.889492753623188 0  18.831521739130434 0  C 19.791666666666668 0  20.615942028985508 0.24390243902438824  21.304347826086957 0.7317073170731714  L 38.994565217391305 13.267008985879333  Z " fill-rule="nonzero" fill="#000000" stroke="none" transform="matrix(1 0 0 1 687 919 )" />
  </g>
</svg>