<?xml version="1.0" encoding="utf-8"?>
<svg version="1.1" xmlns:xlink="http://www.w3.org/1999/xlink" width="6px" height="34px" xmlns="http://www.w3.org/2000/svg">
  <g transform="matrix(1 0 0 1 -53 -208 )">
    <path d="M 5.742857142857143 25.185185185185183  C 5.851948051948052 25.185185185185183  5.927272727272728 25.30979938271605  5.968831168831169 25.55902777777778  C 6.010389610389611 25.80825617283951  5.997402597402598 26.037808641975307  5.92987012987013 26.247685185185183  L 3.2025974025974024 33.80324074074074  C 3.150649350649351 33.93441358024691  3.090909090909091 34  3.023376623376623 34  C 2.9506493506493507 34  2.8883116883116884 33.93441358024691  2.8363636363636364 33.80324074074074  L 0.07012987012987013 26.247685185185183  C 0.0025974025974025913 26.037808641975307  -0.010389610389610395 25.80825617283951  0.03116883116883117 25.55902777777778  C 0.07792207792207792 25.30979938271605  0.15324675324675324 25.185185185185183  0.2571428571428571 25.185185185185183  L 2 25.185185185185183  L 2 0.6296296296296287  C 2.0025974025974027 0.445987654320984  2.025974025974026 0.2951388888888897  2.0727272727272728 0.1770833333333346  C 2.1194805194805193 0.059027777777779455  2.1792207792207794 0  2.251948051948052 0  L 3.7480519480519483 0  C 3.8207792207792206 0  3.8805194805194807 0.059027777777779455  3.9272727272727272 0.1770833333333346  C 3.974025974025974 0.2951388888888897  3.9974025974025977 0.445987654320984  4 0.6296296296296287  L 4 25.185185185185183  L 5.742857142857143 25.185185185185183  Z " fill-rule="nonzero" fill="#000000" stroke="none" transform="matrix(1 0 0 1 53 208 )" />
  </g>
</svg>