<?xml version="1.0" encoding="utf-8"?>
<svg version="1.1" xmlns:xlink="http://www.w3.org/1999/xlink" width="106px" height="53px" xmlns="http://www.w3.org/2000/svg">
  <defs>
    <filter x="-11px" y="334px" width="106px" height="53px" filterUnits="userSpaceOnUse" id="filter10">
      <feOffset dx="1" dy="1" in="SourceAlpha" result="shadowOffsetInner" />
      <feGaussianBlur stdDeviation="1" in="shadowOffsetInner" result="shadowGaussian" />
      <feComposite in2="shadowGaussian" operator="atop" in="SourceAlpha" result="shadowComposite" />
      <feColorMatrix type="matrix" values="0 0 0 0 0  0 0 0 0 0  0 0 0 0 0  0 0 0 0.25098039215686274 0  " in="shadowComposite" />
    </filter>
    <g id="widget11">
      <path d="M -9.5 351  A 15.5 15.5 0 0 1 5.9999999999999964 335.5 L 76 335.5  A 15.5 15.5 0 0 1 91.5 351 L 91.5 368  A 15.5 15.5 0 0 1 76 383.5 L 6 383.5  A 15.5 15.5 0 0 1 -9.5 368 L -9.5 351  Z " fill-rule="nonzero" fill="#1e98d7" stroke="none" fill-opacity="0.25098039215686274" />
      <path d="M -9.5 351  A 15.5 15.5 0 0 1 5.9999999999999964 335.5 L 76 335.5  A 15.5 15.5 0 0 1 91.5 351 L 91.5 368  A 15.5 15.5 0 0 1 76 383.5 L 6 383.5  A 15.5 15.5 0 0 1 -9.5 368 L -9.5 351  Z " stroke-width="1" stroke="#1e98d7" fill="none" />
    </g>
  </defs>
  <g transform="matrix(1 0 0 1 11 -334 )">
    <use xlink:href="#widget11" filter="url(#filter10)" />
    <use xlink:href="#widget11" />
  </g>
</svg>