<?xml version="1.0" encoding="utf-8"?>
<svg version="1.1" xmlns:xlink="http://www.w3.org/1999/xlink" width="36px" height="36px" xmlns="http://www.w3.org/2000/svg">
  <g transform="matrix(1 0 0 1 -1170 -773 )">
    <path d="M 25.714285714285715 7.714285714285715  L 34.07142857142857 7.714285714285715  C 34.60714285714286 7.714285714285715  35.0625 7.901785714285712  35.4375 8.276785714285715  C 35.8125 8.65178571428571  36 9.107142857142858  36 9.642857142857144  L 36 34.07142857142857  C 36 34.60714285714286  35.8125 35.0625  35.4375 35.4375  C 35.0625 35.8125  34.60714285714286 36  34.07142857142857 36  L 14.785714285714285 36  C 14.250000000000002 36  13.794642857142858 35.8125  13.419642857142858 35.4375  C 13.04464285714286 35.0625  12.857142857142858 34.60714285714286  12.857142857142858 34.07142857142857  L 12.857142857142858 28  L 1.9285714285714284 28  C 1.3928571428571432 28.285714285714285  0.9375 28.09821428571429  0.5625 27.723214285714285  C 0.1875 27.348214285714285  0 26.892857142857142  0 26.35714285714286  L 0 12.857142857142856  C 0 12.321428571428571  0.13392857142857142 11.732142857142856  0.4017857142857143 11.089285714285715  C 0.6696428571428571 10.44642857142857  0.9910714285714287 9.937499999999998  1.3660714285714284 9.5625  L 9.5625 1.3660714285714297  C 9.9375 0.991071428571427  10.446428571428573 0.6696428571428568  11.089285714285715 0.40178571428571486  C 11.732142857142858 0.13392857142857295  12.321428571428571 0  12.857142857142858 0  L 21.214285714285715 0  C 21.750000000000004 0  22.205357142857146 0.18750000000000133  22.580357142857146 0.5625  C 22.955357142857142 0.9374999999999987  23.142857142857146 1.392857142857142  23.142857142857146 1.9285714285714297  L 23.142857142857146 8.517857142857144  C 24.05357142857143 7.982142857142857  24.910714285714285 7.714285714285715  25.714285714285715 7.714285714285715  Z M 23.142857142857146 18  L 23.142857142857146 11.99330357142857  L 17.136160714285715 18  L 23.142857142857146 18  Z M 10.285714285714285 10.285714285714285  L 10.285714285714285 4.279017857142856  L 4.279017857142857 10.285714285714285  L 10.285714285714285 10.285714285714285  Z M 13.258928571428573 18.80357142857143  C 13.526785714285714 18.160714285714285  13.848214285714286 17.651785714285715  14.223214285714285 17.276785714285715  L 20.57142857142857 10.92857142857143  L 20.57142857142857 2.5714285714285703  L 12.857142857142858 2.5714285714285703  L 12.857142857142858 10.92857142857143  C 12.857142857142858 11.46428571428571  12.669642857142858 11.919642857142858  12.294642857142858 12.294642857142856  C 11.91964285714286 12.669642857142854  11.464285714285715 12.857142857142856  10.928571428571427 12.857142857142856  L 3 12.857142857142856  L 3 25.714285714285715  L 12.857142857142858 25.714285714285715  L 12.857142857142858 20.57142857142857  C 12.857142857142858 20.035714285714285  12.99107142857143 19.44642857142857  13.258928571428573 18.80357142857143  Z M 16 33  L 33 33  L 33 10.285714285714285  L 25.714285714285715 10.285714285714285  L 25.714285714285715 18.64285714285714  C 25.714285714285715 19.178571428571427  25.52678571428572 19.63392857142857  25.151785714285715 20.00892857142857  C 24.776785714285715 20.383928571428573  24.321428571428573 20.57142857142857  23.785714285714285 20.57142857142857  L 16 20.57142857142857  L 16 33  Z " fill-rule="nonzero" fill="#000000" stroke="none" transform="matrix(1 0 0 1 1170 773 )" />
  </g>
</svg>