<?xml version="1.0" encoding="utf-8"?>
<svg version="1.1" xmlns:xlink="http://www.w3.org/1999/xlink" width="30px" height="25px" xmlns="http://www.w3.org/2000/svg">
  <g transform="matrix(1 0 0 1 -1099 -1182 )">
    <path d="M 29.245923913043477 11.05584082156611  C 29.748641304347828 11.430252460419341  30 11.911638853230636  30 12.5  C 30 13.077663671373557  29.748641304347828 13.564398801882755  29.245923913043477 13.9602053915276  L 15.978260869565219 24.406290115532734  C 15.448369565217392 24.80209670517758  14.830163043478262 25  14.123641304347826 25  C 13.430706521739129 25  12.819293478260871 24.80209670517758  12.289402173913043 24.406290115532734  L 10.76086956521739 23.202824133504492  C 10.244565217391305 22.796320068463842  9.986413043478262 22.30958493795464  9.986413043478262 21.742618741976894  C 9.986413043478262 21.175652545999146  10.244565217391305 20.688917415489943  10.76086956521739 20.282413350449293  L 16.732336956521742 15.5808729139923  L 2.3845108695652177 15.5808729139923  C 1.6779891304347827 15.5808729139923  1.1039402173913044 15.380295250320925  0.6623641304347826 14.979139922978177  C 0.22078804347826084 14.57798459563543  0 14.09392383397518  0 13.526957637997434  L 0 11.473042362002566  C 0 10.906076166024818  0.22078804347826084 10.42201540436457  0.6623641304347826 10.020860077021823  C 1.1039402173913044 9.619704749679075  1.6779891304347827 9.419127086007704  2.3845108695652177 9.419127086007704  L 16.732336956521742 9.419127086007704  L 10.76086956521739 4.701540436456996  C 10.244565217391305 4.316431322207959  9.986413043478262 3.8350449293966635  9.986413043478262 3.2573812580231065  C 9.986413043478262 2.679717586649552  10.244565217391305 2.1983311938382544  10.76086956521739 1.8132220795892162  L 12.289402173913043 0.6097560975609762  C 12.805706521739133 0.20325203252032353  13.41711956521739 0  14.123641304347826 0  C 14.84375 0  15.46195652173913 0.20325203252032353  15.978260869565219 0.6097560975609762  L 29.245923913043477 11.05584082156611  Z " fill-rule="nonzero" fill="#000000" stroke="none" transform="matrix(1 0 0 1 1099 1182 )" />
  </g>
</svg>