<?xml version="1.0" encoding="utf-8"?>
<svg version="1.1" xmlns:xlink="http://www.w3.org/1999/xlink" width="40px" height="37px" xmlns="http://www.w3.org/2000/svg">
  <g transform="matrix(1 0 0 1 -59 -21 )">
    <path d="M 30.3125 33.458984375  C 30.616987179487182 33.15386284722222  30.76923076923077 32.79253472222222  30.76923076923077 32.375  C 30.76923076923077 31.95746527777778  30.616987179487182 31.59613715277778  30.3125 31.291015625  C 30.008012820512825 30.98589409722222  29.647435897435905 30.833333333333336  29.23076923076923 30.833333333333336  C 28.814102564102562 30.833333333333336  28.453525641025642 30.98589409722222  28.149038461538463 31.291015625  C 27.844551282051285 31.59613715277778  27.692307692307693 31.95746527777778  27.692307692307693 32.375  C 27.692307692307693 32.79253472222222  27.844551282051285 33.15386284722222  28.149038461538463 33.458984375  C 28.453525641025642 33.76410590277778  28.814102564102562 33.916666666666664  29.23076923076923 33.916666666666664  C 29.647435897435905 33.916666666666664  30.008012820512825 33.76410590277778  30.3125 33.458984375  Z M 36.46634615384615 33.458984375  C 36.77083333333333 33.15386284722222  36.92307692307693 32.79253472222222  36.92307692307693 32.375  C 36.92307692307693 31.95746527777778  36.77083333333333 31.59613715277778  36.46634615384615 31.291015625  C 36.16185897435898 30.98589409722222  35.80128205128205 30.833333333333336  35.38461538461539 30.833333333333336  C 34.967948717948715 30.833333333333336  34.607371794871796 30.98589409722222  34.30288461538461 31.291015625  C 33.99839743589744 31.59613715277778  33.84615384615385 31.95746527777778  33.84615384615385 32.375  C 33.84615384615385 32.79253472222222  33.99839743589744 33.15386284722222  34.30288461538461 33.458984375  C 34.607371794871796 33.76410590277778  34.967948717948715 33.916666666666664  35.38461538461539 33.916666666666664  C 35.80128205128205 33.916666666666664  36.16185897435898 33.76410590277778  36.46634615384615 33.458984375  Z M 39.32692307692307 25.341145833333332  C 39.77564102564103 25.790798611111104  40 26.336805555555557  40 26.979166666666668  L 40 34.6875  C 40 35.329861111111114  39.77564102564103 35.87586805555555  39.32692307692307 36.325520833333336  C 38.87820512820513 36.775173611111114  38.33333333333334 37  37.69230769230769 37  L 2.307692307692308 37  C 1.666666666666667 37  1.121794871794872 36.775173611111114  0.673076923076923 36.325520833333336  C 0.22435897435897434 35.87586805555555  0 35.329861111111114  0 34.6875  L 0 26.979166666666668  C 0 26.336805555555557  0.22435897435897434 25.790798611111104  0.673076923076923 25.341145833333332  C 1.121794871794872 24.891493055555557  1.666666666666667 24.666666666666668  2.307692307692308 24  L 13.485576923076923 24  L 16.73076923076923 27.942708333333336  C 17.660256410256412 28.842013888888886  18.75 29.291666666666664  20 29.291666666666664  C 21.25 29.291666666666664  22.33974358974359 28.842013888888886  23.26923076923077 27.942708333333336  L 26.538461538461537 24  L 37.69230769230769 24  C 38.33333333333334 24.666666666666668  38.87820512820513 24.891493055555557  39.32692307692307 25.341145833333332  Z M 30.76923076923077 12.333333333333334  C 31.442307692307693 12.333333333333334  31.915064102564106 12.646484375  32.1875 13.272786458333334  C 32.459935897435905 13.931206597222221  32.347756410256416 14.493272569444443  31.850961538461537 14.958984375  L 21.08173076923077 25.750651041666668  C 20.79326923076923 26.055772569444443  20.432692307692307 26.208333333333332  20 26.208333333333332  C 19.567307692307693 26.208333333333332  19.20673076923077 26.055772569444443  18.91826923076923 25.750651041666668  L 8.149038461538462 14.958984375  C 7.65224358974359 14.493272569444443  7.540064102564104 13.931206597222221  7.8125 13.272786458333334  C 8.084935897435898 12.646484375  8.557692307692307 12.333333333333334  9.230769230769232 12.333333333333334  L 16 12.333333333333334  L 16 1.5416666666666652  C 15.384615384615385 1.1241319444444393  15.536858974358976 0.7628038194444394  15.841346153846153 0.4576822916666653  C 16.145833333333336 0.15256076388889117  16.50641025641026 0  16.923076923076923 0  L 23.076923076923073 0  C 23.493589743589745 0  23.85416666666667 0.15256076388889117  24.158653846153847 0.4576822916666653  C 24.463141025641026 0.7628038194444394  24.615384615384617 1.1241319444444393  24 1.5416666666666652  L 24 12.333333333333334  L 30.76923076923077 12.333333333333334  Z " fill-rule="nonzero" fill="#160652" stroke="none" transform="matrix(1 0 0 1 59 21 )" />
  </g>
</svg>