<?xml version="1.0" encoding="utf-8"?>
<svg version="1.1" xmlns:xlink="http://www.w3.org/1999/xlink" width="24px" height="18px" xmlns="http://www.w3.org/2000/svg">
  <defs>
    <mask fill="white" id="clip5">
      <path d="M 1.5 16.5  L 24 16.5  L 24 18  L 0 18  L 0 0  L 1.5 0  L 1.5 16.5  Z M 22.39453125 1.6054687500000007  C 22.464843750000004 1.6757812500000007  22.500000000000004 1.7656249999999982  22.5 1.8749999999999993  L 22.5 6.972656249999999  C 22.500000000000004 7.136718749999998  22.423828125000004 7.251953125  22.271484375 7.318359375000001  C 22.119140625000004 7.384765625  21.980468750000004 7.35546875  21.85546875 7.230468750000001  L 20.4375 5.812499999999999  L 13.01953125 13.230468750000002  C 12.941406250000002 13.30859375  12.8515625 13.347656249999998  12.75 13.347656249999998  C 12.648437500000002 13.347656249999998  12.55859375 13.30859375  12.48046875 13.230468750000002  L 9.75 10.499999999999998  L 4.875 15.375  L 2.625 13.125000000000002  L 9.48046875 6.269531249999999  C 9.55859375 6.191406249999999  9.648437500000002 6.15234375  9.75 6.15234375  C 9.8515625 6.15234375  9.94140625 6.191406249999999  10.01953125 6.269531249999999  L 12.75 9  L 18.1875 3.562499999999999  L 16.76953125 2.14453125  C 16.64453125 2.0195312499999982  16.615234375 1.880859375  16.681640625 1.7285156250000007  C 16.748046875 1.5761718749999993  16.86328125 1.5000000000000007  17.02734375 1.5000000000000007  L 22.125 1.5000000000000007  C 22.234375 1.5000000000000007  22.324218750000004 1.5351562500000007  22.39453125 1.6054687500000007  Z " fill-rule="evenodd" />
    </mask>
  </defs>
  <g transform="matrix(1 0 0 1 -510 -120 )">
    <path d="M 1.5 16.5  L 24 16.5  L 24 18  L 0 18  L 0 0  L 1.5 0  L 1.5 16.5  Z M 22.39453125 1.6054687500000007  C 22.464843750000004 1.6757812500000007  22.500000000000004 1.7656249999999982  22.5 1.8749999999999993  L 22.5 6.972656249999999  C 22.500000000000004 7.136718749999998  22.423828125000004 7.251953125  22.271484375 7.318359375000001  C 22.119140625000004 7.384765625  21.980468750000004 7.35546875  21.85546875 7.230468750000001  L 20.4375 5.812499999999999  L 13.01953125 13.230468750000002  C 12.941406250000002 13.30859375  12.8515625 13.347656249999998  12.75 13.347656249999998  C 12.648437500000002 13.347656249999998  12.55859375 13.30859375  12.48046875 13.230468750000002  L 9.75 10.499999999999998  L 4.875 15.375  L 2.625 13.125000000000002  L 9.48046875 6.269531249999999  C 9.55859375 6.191406249999999  9.648437500000002 6.15234375  9.75 6.15234375  C 9.8515625 6.15234375  9.94140625 6.191406249999999  10.01953125 6.269531249999999  L 12.75 9  L 18.1875 3.562499999999999  L 16.76953125 2.14453125  C 16.64453125 2.0195312499999982  16.615234375 1.880859375  16.681640625 1.7285156250000007  C 16.748046875 1.5761718749999993  16.86328125 1.5000000000000007  17.02734375 1.5000000000000007  L 22.125 1.5000000000000007  C 22.234375 1.5000000000000007  22.324218750000004 1.5351562500000007  22.39453125 1.6054687500000007  Z " fill-rule="nonzero" fill="#02997e" stroke="none" transform="matrix(1 0 0 1 510 120 )" />
    <path d="M 1.5 16.5  L 24 16.5  L 24 18  L 0 18  L 0 0  L 1.5 0  L 1.5 16.5  Z " stroke-width="2" stroke="#333333" fill="none" transform="matrix(1 0 0 1 510 120 )" mask="url(#clip5)" />
    <path d="M 22.39453125 1.6054687500000007  C 22.464843750000004 1.6757812500000007  22.500000000000004 1.7656249999999982  22.5 1.8749999999999993  L 22.5 6.972656249999999  C 22.500000000000004 7.136718749999998  22.423828125000004 7.251953125  22.271484375 7.318359375000001  C 22.119140625000004 7.384765625  21.980468750000004 7.35546875  21.85546875 7.230468750000001  L 20.4375 5.812499999999999  L 13.01953125 13.230468750000002  C 12.941406250000002 13.30859375  12.8515625 13.347656249999998  12.75 13.347656249999998  C 12.648437500000002 13.347656249999998  12.55859375 13.30859375  12.48046875 13.230468750000002  L 9.75 10.499999999999998  L 4.875 15.375  L 2.625 13.125000000000002  L 9.48046875 6.269531249999999  C 9.55859375 6.191406249999999  9.648437500000002 6.15234375  9.75 6.15234375  C 9.8515625 6.15234375  9.94140625 6.191406249999999  10.01953125 6.269531249999999  L 12.75 9  L 18.1875 3.562499999999999  L 16.76953125 2.14453125  C 16.64453125 2.0195312499999982  16.615234375 1.880859375  16.681640625 1.7285156250000007  C 16.748046875 1.5761718749999993  16.86328125 1.5000000000000007  17.02734375 1.5000000000000007  L 22.125 1.5000000000000007  C 22.234375 1.5000000000000007  22.324218750000004 1.5351562500000007  22.39453125 1.6054687500000007  Z " stroke-width="2" stroke="#333333" fill="none" transform="matrix(1 0 0 1 510 120 )" mask="url(#clip5)" />
  </g>
</svg>