<?xml version="1.0" encoding="utf-8"?>
<svg version="1.1" xmlns:xlink="http://www.w3.org/1999/xlink" width="20px" height="15px" xmlns="http://www.w3.org/2000/svg">
  <defs>
    <mask fill="white" id="clip7">
      <path d="M 1.25 13.75  L 20 13.75  L 20 15  L 0 15  L 0 0  L 1.25 0  L 1.25 13.75  Z M 18.662109375 1.3378906250000004  C 18.720703125000004 1.3964843750000004  18.750000000000004 1.4713541666666652  18.75 1.5624999999999996  L 18.75 5.810546874999999  C 18.750000000000004 5.947265624999998  18.686523437500004 6.043294270833333  18.5595703125 6.098632812500001  C 18.432617187500004 6.153971354166666  18.31705729166667 6.129557291666667  18.212890625 6.025390625000001  L 17.03125 4.843749999999999  L 10.849609375 11.025390625000002  C 10.784505208333336 11.090494791666666  10.709635416666668 11.123046874999998  10.625 11.123046874999998  C 10.540364583333336 11.123046874999998  10.465494791666668 11.090494791666666  10.400390625 11.025390625000002  L 8.125 8.749999999999998  L 4.0625 12.8125  L 2.1875 10.937500000000002  L 7.900390625 5.224609374999999  C 7.965494791666668 5.159505208333332  8.040364583333336 5.126953125  8.125 5.126953125  C 8.209635416666668 5.126953125  8.284505208333334 5.159505208333332  8.349609375 5.224609374999999  L 10.625 7.5  L 15.15625 2.9687499999999996  L 13.974609375 1.787109375  C 13.870442708333336 1.6829427083333321  13.846028645833336 1.5673828125  13.9013671875 1.4404296875000004  C 13.956705729166668 1.3134765624999996  14.052734375 1.2500000000000004  14.189453125 1.2500000000000004  L 18.4375 1.2500000000000004  C 18.528645833333336 1.2500000000000004  18.603515625000004 1.2792968750000004  18.662109375 1.3378906250000004  Z " fill-rule="evenodd" />
    </mask>
  </defs>
  <g transform="matrix(1 0 0 1 -392 -536 )">
    <path d="M 1.25 13.75  L 20 13.75  L 20 15  L 0 15  L 0 0  L 1.25 0  L 1.25 13.75  Z M 18.662109375 1.3378906250000004  C 18.720703125000004 1.3964843750000004  18.750000000000004 1.4713541666666652  18.75 1.5624999999999996  L 18.75 5.810546874999999  C 18.750000000000004 5.947265624999998  18.686523437500004 6.043294270833333  18.5595703125 6.098632812500001  C 18.432617187500004 6.153971354166666  18.31705729166667 6.129557291666667  18.212890625 6.025390625000001  L 17.03125 4.843749999999999  L 10.849609375 11.025390625000002  C 10.784505208333336 11.090494791666666  10.709635416666668 11.123046874999998  10.625 11.123046874999998  C 10.540364583333336 11.123046874999998  10.465494791666668 11.090494791666666  10.400390625 11.025390625000002  L 8.125 8.749999999999998  L 4.0625 12.8125  L 2.1875 10.937500000000002  L 7.900390625 5.224609374999999  C 7.965494791666668 5.159505208333332  8.040364583333336 5.126953125  8.125 5.126953125  C 8.209635416666668 5.126953125  8.284505208333334 5.159505208333332  8.349609375 5.224609374999999  L 10.625 7.5  L 15.15625 2.9687499999999996  L 13.974609375 1.787109375  C 13.870442708333336 1.6829427083333321  13.846028645833336 1.5673828125  13.9013671875 1.4404296875000004  C 13.956705729166668 1.3134765624999996  14.052734375 1.2500000000000004  14.189453125 1.2500000000000004  L 18.4375 1.2500000000000004  C 18.528645833333336 1.2500000000000004  18.603515625000004 1.2792968750000004  18.662109375 1.3378906250000004  Z " fill-rule="nonzero" fill="#02997e" stroke="none" transform="matrix(1 0 0 1 392 536 )" />
    <path d="M 1.25 13.75  L 20 13.75  L 20 15  L 0 15  L 0 0  L 1.25 0  L 1.25 13.75  Z " stroke-width="2" stroke="#333333" fill="none" transform="matrix(1 0 0 1 392 536 )" mask="url(#clip7)" />
    <path d="M 18.662109375 1.3378906250000004  C 18.720703125000004 1.3964843750000004  18.750000000000004 1.4713541666666652  18.75 1.5624999999999996  L 18.75 5.810546874999999  C 18.750000000000004 5.947265624999998  18.686523437500004 6.043294270833333  18.5595703125 6.098632812500001  C 18.432617187500004 6.153971354166666  18.31705729166667 6.129557291666667  18.212890625 6.025390625000001  L 17.03125 4.843749999999999  L 10.849609375 11.025390625000002  C 10.784505208333336 11.090494791666666  10.709635416666668 11.123046874999998  10.625 11.123046874999998  C 10.540364583333336 11.123046874999998  10.465494791666668 11.090494791666666  10.400390625 11.025390625000002  L 8.125 8.749999999999998  L 4.0625 12.8125  L 2.1875 10.937500000000002  L 7.900390625 5.224609374999999  C 7.965494791666668 5.159505208333332  8.040364583333336 5.126953125  8.125 5.126953125  C 8.209635416666668 5.126953125  8.284505208333334 5.159505208333332  8.349609375 5.224609374999999  L 10.625 7.5  L 15.15625 2.9687499999999996  L 13.974609375 1.787109375  C 13.870442708333336 1.6829427083333321  13.846028645833336 1.5673828125  13.9013671875 1.4404296875000004  C 13.956705729166668 1.3134765624999996  14.052734375 1.2500000000000004  14.189453125 1.2500000000000004  L 18.4375 1.2500000000000004  C 18.528645833333336 1.2500000000000004  18.603515625000004 1.2792968750000004  18.662109375 1.3378906250000004  Z " stroke-width="2" stroke="#333333" fill="none" transform="matrix(1 0 0 1 392 536 )" mask="url(#clip7)" />
  </g>
</svg>