<?xml version="1.0" encoding="utf-8"?>
<svg version="1.1" xmlns:xlink="http://www.w3.org/1999/xlink" width="106px" height="53px" xmlns="http://www.w3.org/2000/svg">
  <defs>
    <filter x="-11px" y="450px" width="106px" height="53px" filterUnits="userSpaceOnUse" id="filter5">
      <feOffset dx="1" dy="1" in="SourceAlpha" result="shadowOffsetInner" />
      <feGaussianBlur stdDeviation="1" in="shadowOffsetInner" result="shadowGaussian" />
      <feComposite in2="shadowGaussian" operator="atop" in="SourceAlpha" result="shadowComposite" />
      <feColorMatrix type="matrix" values="0 0 0 0 0  0 0 0 0 0  0 0 0 0 0  0 0 0 0.25098039215686274 0  " in="shadowComposite" />
    </filter>
    <g id="widget6">
      <path d="M -9.5 467  A 15.5 15.5 0 0 1 5.9999999999999964 451.5 L 76 451.5  A 15.5 15.5 0 0 1 91.5 467 L 91.5 484  A 15.5 15.5 0 0 1 76 499.5 L 6 499.5  A 15.5 15.5 0 0 1 -9.5 484 L -9.5 467  Z " fill-rule="nonzero" fill="#9e9e9e" stroke="none" />
      <path d="M -9.5 467  A 15.5 15.5 0 0 1 5.9999999999999964 451.5 L 76 451.5  A 15.5 15.5 0 0 1 91.5 467 L 91.5 484  A 15.5 15.5 0 0 1 76 499.5 L 6 499.5  A 15.5 15.5 0 0 1 -9.5 484 L -9.5 467  Z " stroke-width="1" stroke="#c2c2c2" fill="none" />
    </g>
  </defs>
  <g transform="matrix(1 0 0 1 11 -450 )">
    <use xlink:href="#widget6" filter="url(#filter5)" />
    <use xlink:href="#widget6" />
  </g>
</svg>