<?xml version="1.0" encoding="utf-8"?>
<svg version="1.1" xmlns:xlink="http://www.w3.org/1999/xlink" width="38px" height="28px" xmlns="http://www.w3.org/2000/svg">
  <defs>
    <mask fill="white" id="clip21">
      <path d="M 3 25.666666666666664  L 38 25.666666666666664  L 38 28  L 0 28  L 0 0  L 3 0  L 3 25.666666666666664  Z M 35.4580078125 2.4973958333333344  C 35.56933593750001 2.6067708333333344  35.62500000000001 2.746527777777775  35.625 2.9166666666666656  L 35.625 10.846354166666666  C 35.62500000000001 11.101562499999996  35.50439453125001 11.280815972222221  35.26318359375 11.384114583333334  C 35.02197265625001 11.487413194444443  34.80240885416667 11.441840277777779  34.6044921875 11.247395833333334  L 32.359375 9.041666666666666  L 20.6142578125 20.580729166666668  C 20.490559895833336 20.702256944444443  20.348307291666668 20.763020833333332  20.1875 20.763020833333332  C 20.026692708333336 20.763020833333332  19.884440104166668 20.702256944444443  19.7607421875 20.580729166666668  L 15.4375 16.333333333333332  L 7.71875 23.916666666666664  L 4.15625 20.416666666666668  L 15.0107421875 9.752604166666666  C 15.134440104166668 9.631076388888888  15.276692708333336 9.5703125  15.4375 9.5703125  C 15.598307291666668 9.5703125  15.740559895833334 9.631076388888888  15.8642578125 9.752604166666666  L 20.1875 14  L 28.796875 5.541666666666666  L 26.5517578125 3.3359375  C 26.353841145833336 3.141493055555553  26.307454427083336 2.92578125  26.41259765625 2.6888020833333344  C 26.517740885416668 2.4518229166666656  26.7001953125 2.3333333333333344  26.9599609375 2.3333333333333344  L 35.03125 2.3333333333333344  C 35.204427083333336 2.3333333333333344  35.34667968750001 2.3880208333333344  35.4580078125 2.4973958333333344  Z " fill-rule="evenodd" />
    </mask>
  </defs>
  <g transform="matrix(1 0 0 1 -749 -979 )">
    <path d="M 3 25.666666666666664  L 38 25.666666666666664  L 38 28  L 0 28  L 0 0  L 3 0  L 3 25.666666666666664  Z M 35.4580078125 2.4973958333333344  C 35.56933593750001 2.6067708333333344  35.62500000000001 2.746527777777775  35.625 2.9166666666666656  L 35.625 10.846354166666666  C 35.62500000000001 11.101562499999996  35.50439453125001 11.280815972222221  35.26318359375 11.384114583333334  C 35.02197265625001 11.487413194444443  34.80240885416667 11.441840277777779  34.6044921875 11.247395833333334  L 32.359375 9.041666666666666  L 20.6142578125 20.580729166666668  C 20.490559895833336 20.702256944444443  20.348307291666668 20.763020833333332  20.1875 20.763020833333332  C 20.026692708333336 20.763020833333332  19.884440104166668 20.702256944444443  19.7607421875 20.580729166666668  L 15.4375 16.333333333333332  L 7.71875 23.916666666666664  L 4.15625 20.416666666666668  L 15.0107421875 9.752604166666666  C 15.134440104166668 9.631076388888888  15.276692708333336 9.5703125  15.4375 9.5703125  C 15.598307291666668 9.5703125  15.740559895833334 9.631076388888888  15.8642578125 9.752604166666666  L 20.1875 14  L 28.796875 5.541666666666666  L 26.5517578125 3.3359375  C 26.353841145833336 3.141493055555553  26.307454427083336 2.92578125  26.41259765625 2.6888020833333344  C 26.517740885416668 2.4518229166666656  26.7001953125 2.3333333333333344  26.9599609375 2.3333333333333344  L 35.03125 2.3333333333333344  C 35.204427083333336 2.3333333333333344  35.34667968750001 2.3880208333333344  35.4580078125 2.4973958333333344  Z " fill-rule="nonzero" fill="#02997e" stroke="none" transform="matrix(1 0 0 1 749 979 )" />
    <path d="M 3 25.666666666666664  L 38 25.666666666666664  L 38 28  L 0 28  L 0 0  L 3 0  L 3 25.666666666666664  Z " stroke-width="2" stroke="#333333" fill="none" transform="matrix(1 0 0 1 749 979 )" mask="url(#clip21)" />
    <path d="M 35.4580078125 2.4973958333333344  C 35.56933593750001 2.6067708333333344  35.62500000000001 2.746527777777775  35.625 2.9166666666666656  L 35.625 10.846354166666666  C 35.62500000000001 11.101562499999996  35.50439453125001 11.280815972222221  35.26318359375 11.384114583333334  C 35.02197265625001 11.487413194444443  34.80240885416667 11.441840277777779  34.6044921875 11.247395833333334  L 32.359375 9.041666666666666  L 20.6142578125 20.580729166666668  C 20.490559895833336 20.702256944444443  20.348307291666668 20.763020833333332  20.1875 20.763020833333332  C 20.026692708333336 20.763020833333332  19.884440104166668 20.702256944444443  19.7607421875 20.580729166666668  L 15.4375 16.333333333333332  L 7.71875 23.916666666666664  L 4.15625 20.416666666666668  L 15.0107421875 9.752604166666666  C 15.134440104166668 9.631076388888888  15.276692708333336 9.5703125  15.4375 9.5703125  C 15.598307291666668 9.5703125  15.740559895833334 9.631076388888888  15.8642578125 9.752604166666666  L 20.1875 14  L 28.796875 5.541666666666666  L 26.5517578125 3.3359375  C 26.353841145833336 3.141493055555553  26.307454427083336 2.92578125  26.41259765625 2.6888020833333344  C 26.517740885416668 2.4518229166666656  26.7001953125 2.3333333333333344  26.9599609375 2.3333333333333344  L 35.03125 2.3333333333333344  C 35.204427083333336 2.3333333333333344  35.34667968750001 2.3880208333333344  35.4580078125 2.4973958333333344  Z " stroke-width="2" stroke="#333333" fill="none" transform="matrix(1 0 0 1 749 979 )" mask="url(#clip21)" />
  </g>
</svg>