<?xml version="1.0" encoding="utf-8"?>
<svg version="1.1" xmlns:xlink="http://www.w3.org/1999/xlink" width="16px" height="13px" xmlns="http://www.w3.org/2000/svg">
  <g transform="matrix(1 0 0 1 -460 -200 )">
    <path d="M 15.710967741935484 1.794612794612795  C 15.903655913978497 1.9988776655443319  16.000000000000004 2.2469135802469133  16 2.538720538720539  C 16.000000000000004 2.8305274971941623  15.903655913978497 3.078563411896744  15.710967741935484 3.2828282828282824  L 8.23741935483871 11.205387205387204  L 6.833548387096775 12.693602693602694  C 6.640860215053764 12.897867564534232  6.406881720430109 13  6.131612903225807 13  C 5.8563440860215055 13  5.62236559139785 12.897867564534232  5.429677419354839 12.693602693602694  L 4.025806451612903 11.205387205387204  L 0.28903225806451616 7.244107744107745  C 0.09634408602150547 7.039842873176205  0 6.791806958473623  0 6.5  C 0 6.208193041526375  0.09634408602150547 5.960157126823793  0.28903225806451616 5.755892255892256  L 1.6929032258064516 4.267676767676768  C 1.8855913978494625 4.0634118967452295  2.1195698924731188 3.9612794612794597  2.3948387096774195 3.961279461279461  C 2.670107526881721 3.9612794612794597  2.9040860215053765 4.0634118967452295  3.096774193548387 4.267676767676768  L 6.131612903225807 7.495791245791246  L 12.903225806451612 0.30639730639730645  C 13.095913978494625 0.10213243546576833  13.329892473118282 0  13.605161290322581 0  C 13.880430107526882 0  14.114408602150538 0.10213243546576833  14.307096774193548 0.30639730639730645  L 15.710967741935484 1.794612794612795  Z " fill-rule="nonzero" fill="#ffffff" stroke="none" transform="matrix(1 0 0 1 460 200 )" />
  </g>
</svg>