<?xml version="1.0" encoding="utf-8"?>
<svg version="1.1" xmlns:xlink="http://www.w3.org/1999/xlink" width="59px" height="69px" xmlns="http://www.w3.org/2000/svg">
  <g transform="matrix(1 0 0 1 -1256 -80 )">
    <path d="M 44.40364583333333 2.618303571428574  L 56.38802083333333 14.631696428571427  C 57.10503472222223 15.350446428571423  57.71961805555556 16.32589285714286  58.23177083333333 17.55803571428571  C 58.74392361111111 18.790178571428573  59 19.919642857142854  59 20.946428571428573  L 59 65.30357142857143  C 59 66.33035714285714  58.64149305555555 67.203125  57.92447916666667 67.921875  C 57.207465277777786 68.640625  56.33680555555556 69  55.3125 69  L 3.6875 69  C 2.6631944444444446 69  1.7925347222222223 68.640625  1.0755208333333335 67.921875  C 0.3585069444444444 67.203125  0 66.33035714285714  0 65.30357142857143  L 0 3.696428571428574  C 0 2.6696428571428554  0.3585069444444444 1.7968749999999973  1.0755208333333335 1.078125  C 1.7925347222222223 0.35937500000000255  2.6631944444444446 0  3.6875 0  L 38.10416666666667 0  C 39.12847222222223 0  40.25520833333333 0.2566964285714315  41.484375 0.7700892857142868  C 42.71354166666667 1.2834821428571421  43.68663194444445 1.8995535714285685  44.40364583333333 2.618303571428574  Z M 40.908203125 6.08370535714286  C 40.60091145833333 5.77566964285714  40.075954861111114 5.493303571428563  39 5.23660714285714  L 39 20  L 53.77604166666667 20  C 53.519965277777786 18.969866071428562  53.23828125 18.44363839285714  52.93098958333333 18.135602678571427  L 40.908203125 6.08370535714286  Z M 5 64  L 54 64  L 54 25  L 38.10416666666667 25  C 37.07986111111111 24.64285714285714  36.20920138888889 24.28348214285714  35.4921875 23.56473214285714  C 34.77517361111111 22.845982142857142  34.41666666666667 21.973214285714278  34 20.946428571428573  L 34 5  L 5 5  L 5 64  Z M 36.875 34.5  L 49 46.82142857142858  L 49 59  L 9.833333333333332 59  L 9.833333333333332 51.75  L 17.208333333333336 44.357142857142854  L 22.125 49.285714285714285  L 36.875 34.5  Z M 22.432291666666664 37.27232142857142  C 20.998263888888893 38.70982142857142  19.256944444444446 39.42857142857142  17.208333333333336 39.42857142857142  C 15.159722222222223 39.42857142857142  13.418402777777779 38.70982142857142  11.984375 37.27232142857142  C 10.550347222222223 35.83482142857143  9.833333333333332 34.08928571428571  9.833333333333332 32.035714285714285  C 9.833333333333332 29.982142857142858  10.550347222222223 28.236607142857142  11.984375 26.79910714285714  C 13.418402777777779 25.36160714285714  15.159722222222223 24.64285714285714  17.208333333333336 24.64285714285714  C 19.256944444444446 24.64285714285714  20.998263888888893 25.36160714285714  22.432291666666664 26.79910714285714  C 23.866319444444446 28.236607142857142  24.583333333333336 29.982142857142858  24.583333333333336 32.035714285714285  C 24.583333333333336 34.08928571428571  23.866319444444446 35.83482142857143  22.432291666666664 37.27232142857142  Z " fill-rule="nonzero" fill="#000000" stroke="none" transform="matrix(1 0 0 1 1256 80 )" />
  </g>
</svg>