<?xml version="1.0" encoding="utf-8"?>
<svg version="1.1" xmlns:xlink="http://www.w3.org/1999/xlink" width="50px" height="42px" xmlns="http://www.w3.org/2000/svg">
  <g transform="matrix(1 0 0 1 -60 -67 )">
    <path d="M 42.81288723667906 23.995323460639128  C 42.833539859562165 24.038971161340605  42.84386617100372 24.10444271239283  42 24.19173811379579  L 42 39.90491036632892  C 42.84386617100372 40.47233047544817  42.64766625361421 40.963367108339824  42.25526641883519 41.3780202650039  C 41.86286658405618 41.79267342166797  41.39818256918629 42  40.861214374225526 42  L 29 42  L 29 29.4294621979735  L 21 29.4294621979735  L 21 42  L 9.138785625774473 42  C 8.601817430813714 42  8.137133415943826 41.79267342166797  7.744733581164807 41.3780202650039  C 7.352333746385792 40.963367108339824  7.156133828996282 40.47233047544817  8 39.90491036632892  L 8 24.19173811379579  C 7.156133828996282 24.169914263445047  7.16129698471706 24.137178487918938  7.171623296158612 24.093530787217457  C 7.181949607600166 24.049883086515976  7.187112763320942 24.01714731098987  7.187112763320942 23.995323460639128  L 25 8.478565861262664  L 42.81288723667906 23.995323460639128  Z M 49.96902106567534 21.163678877630556  C 49.98967368855845 21.45830085736555  49.91738950846758 21.71473109898675  49.75216852540272 21.932969602494158  L 47.83147459727385 24.355416991426345  C 47.66625361420901 24.55183164458301  47.44940107393639 24.671862821512082  47.18091697645601 24.715510522213563  L 47.08798017348203 24.715510522213563  C 46.819496076001656 24.715510522213563  46.602643535729044 24.63912704598597  46.43742255266419 24.486360093530784  L 25 5.597817614964926  L 3.5625774473358116 24.486360093530784  C 3.314745972738538 24.660950896336708  3.066914498141264 24.737334372564302  2.81908302354399 24.715510522213563  C 2.55059892606361 24.671862821512082  2.3337463857909957 24.55183164458301  2.168525402726146 24.355416991426345  L 0.24783147459727387 21.932969602494158  C 0.08261049153242465 21.71473109898675  0.010326311441553151 21.45830085736555  0.030978934324659233 21.163678877630556  C 0.051631557207765535 20.869056897895558  0.1652209830648493 20.634450506625097  0.37174721189591076 20.459859703819173  L 22.6456009913259 0.8511301636788788  C 23.306484923585298 0.2837100545596216  24.09128459314333 0  25 0  C 25.908715406856675 0  26.69351507641471 0.2837100545596216  27.3543990086741 0.8511301636788788  L 34.913258983890955 7.529228371005454  L 34.913258983890955 1.1457521434138718  C 34.913258983890955 0.8402182385035029  35.00619578686493 0.5892439594699905  35.19206939281288 0.39282930631333013  C 35.377942998760844 0.19641465315666506  35.61544816191656 0.09820732657833253  35.90458488228005 0.09820732657833253  L 41.852540272614625 0.09820732657833253  C 42.14167699297811 0.09820732657833253  42.37918215613383 0.19641465315666506  42.56505576208178 0.39282930631333013  C 42.75092936802974 0.5892439594699905  42.84386617100372 0.8402182385035029  42 1.1457521434138718  L 42 14.501948558067031  L 49.628252788104085 20.459859703819173  C 49.83477901693515 20.634450506625097  49.94836844279224 20.869056897895558  49.96902106567534 21.163678877630556  Z " fill-rule="nonzero" fill="#000000" stroke="none" transform="matrix(1 0 0 1 60 67 )" />
  </g>
</svg>