<?xml version="1.0" encoding="utf-8"?>
<svg version="1.1" xmlns:xlink="http://www.w3.org/1999/xlink" width="120px" height="40px" xmlns="http://www.w3.org/2000/svg">
  <defs>
    <mask fill="white" id="clip4">
      <path d="M 0 33.93939393939394  L 0 6.0606060606060606  C 0 2.6666666666666528  2.538461538461591 0  5.769230769230769 0  L 57.293447293444615 0  L 114.23076923076923 0  C 117.46153846153841 0  120 2.6666666666666528  120 6.0606060606060606  L 120 33.93939393939394  C 120 37.33333333333335  117.46153846153841 40  114.23076923076923 40  L 5.769230769230769 40  C 2.538461538461591 40  0 37.33333333333335  0 33.93939393939394  Z " fill-rule="evenodd" />
    </mask>
  </defs>
  <g transform="matrix(1 0 0 1 -1144 -293 )">
    <path d="M 0 33.93939393939394  L 0 6.0606060606060606  C 0 2.6666666666666528  2.538461538461591 0  5.769230769230769 0  L 57.293447293444615 0  L 114.23076923076923 0  C 117.46153846153841 0  120 2.6666666666666528  120 6.0606060606060606  L 120 33.93939393939394  C 120 37.33333333333335  117.46153846153841 40  114.23076923076923 40  L 5.769230769230769 40  C 2.538461538461591 40  0 37.33333333333335  0 33.93939393939394  Z " fill-rule="nonzero" fill="#1c8213" stroke="none" transform="matrix(1 0 0 1 1144 293 )" />
    <path d="M 0 33.93939393939394  L 0 6.0606060606060606  C 0 2.6666666666666528  2.538461538461591 0  5.769230769230769 0  L 57.293447293444615 0  L 114.23076923076923 0  C 117.46153846153841 0  120 2.6666666666666528  120 6.0606060606060606  L 120 33.93939393939394  C 120 37.33333333333335  117.46153846153841 40  114.23076923076923 40  L 5.769230769230769 40  C 2.538461538461591 40  0 37.33333333333335  0 33.93939393939394  Z " stroke-width="4" stroke="#e4db05" fill="none" transform="matrix(1 0 0 1 1144 293 )" mask="url(#clip4)" />
  </g>
</svg>