<?xml version="1.0" encoding="utf-8"?>
<svg version="1.1" xmlns:xlink="http://www.w3.org/1999/xlink" width="28px" height="28px" xmlns="http://www.w3.org/2000/svg">
  <g transform="matrix(1 0 0 1 -639 -1 )">
    <path d="M 27.34006734006734 20.929292929292927  C 27.780022446689113 21.369248035914698  28 21.903479236812565  28 22.531986531986533  C 28 23.160493827160497  27.780022446689113 23.694725028058357  27.34006734006734 24.134680134680135  L 24.134680134680135 27.34006734006734  C 23.694725028058365 27.780022446689113  23.160493827160494 28  22.531986531986533 28  C 21.903479236812572 28  21.369248035914705 27.780022446689113  20.92929292929293 27.34006734006734  L 14 20.410774410774412  L 7.070707070707071 27.34006734006734  C 6.630751964085299 27.780022446689113  6.09652076318743 28  5.468013468013468 28  C 4.839506172839506 28  4.305274971941639 27.780022446689113  3.8653198653198655 27.34006734006734  L 0.6599326599326599 24.134680134680135  C 0.21997755331088686 23.694725028058357  0 23.160493827160497  0 22.531986531986533  C 0 21.903479236812565  0.21997755331088686 21.369248035914698  0.6599326599326599 20.929292929292927  L 7.589225589225589 14  L 0.6599326599326599 7.070707070707069  C 0.21997755331088686 6.630751964085295  0 6.09652076318743  0 5.468013468013468  C 0 4.839506172839506  0.21997755331088686 4.3052749719416346  0.6599326599326599 3.8653198653198664  L 3.8653198653198655 0.65993265993266  C 4.305274971941639 0.21997755331088564  4.839506172839506 0  5.468013468013468 0  C 6.09652076318743 0  6.630751964085299 0.21997755331088564  7.070707070707071 0.65993265993266  L 14 7.58922558922559  L 20.92929292929293 0.65993265993266  C 21.369248035914705 0.21997755331088564  21.903479236812572 0  22.531986531986533 0  C 23.160493827160494 0  23.694725028058365 0.21997755331088564  24.134680134680135 0.65993265993266  L 27.34006734006734 3.8653198653198664  C 27.780022446689113 4.3052749719416346  28 4.839506172839506  28 5.468013468013468  C 28 6.09652076318743  27.780022446689113 6.630751964085295  27.34006734006734 7.070707070707069  L 20.41077441077441 14  L 27.34006734006734 20.929292929292927  Z " fill-rule="nonzero" fill="#000000" stroke="none" transform="matrix(1 0 0 1 639 1 )" />
  </g>
</svg>